<svg width="24" height="24" viewBox="0 0 24 24" xmlns="http://www.w3.org/2000/svg">
<path id="Path" fill="#000000" stroke="none" d="M 14.828342 6.640074 L 15.952642 6.633001 L 12.707036 9.878609 C 12.519511 10.066133 12.414152 10.320551 12.414152 10.585715 C 12.414152 10.851023 12.519511 11.105298 12.707036 11.292823 C 12.894631 11.480417 13.148907 11.585776 13.414143 11.585706 C 13.679379 11.585776 13.933725 11.480347 14.121249 11.292823 L 17.366856 8.047215 L 17.359785 9.171516 C 17.35927 9.303554 17.384872 9.434361 17.435169 9.556458 C 17.485395 9.678483 17.55933 9.789386 17.652668 9.882724 C 17.746077 9.976132 17.856979 10.050068 17.979006 10.100293 C 18.101101 10.15059 18.231909 10.176194 18.363876 10.175608 C 18.495935 10.176202 18.626757 10.150599 18.748768 10.100286 C 18.870857 10.05004 18.981739 9.976069 19.075085 9.882724 C 19.16843 9.789379 19.242399 9.678498 19.292646 9.556409 C 19.342964 9.43439 19.368563 9.303576 19.367968 9.171516 L 19.367968 5.635983 C 19.365097 5.504362 19.336296 5.374628 19.283113 5.254145 C 19.18173 5.011311 18.988621 4.818199 18.745712 4.716743 C 18.625301 4.663631 18.495497 4.634762 18.363876 4.631891 L 14.82837 4.63192 C 14.562073 4.63192 14.306675 4.737709 14.118372 4.92601 C 13.930069 5.114313 13.824278 5.369715 13.824279 5.636011 C 13.82428 5.902308 13.930069 6.157707 14.118371 6.34601 C 14.306674 6.534313 14.562046 6.640074 14.828342 6.640074 Z M 9.171501 17.359798 L 8.047202 17.366871 L 11.292823 14.121249 C 11.480347 13.933725 11.585776 13.679379 11.585706 13.414143 C 11.585706 13.148977 11.480417 12.894631 11.292823 12.707036 C 11.105298 12.519511 10.850951 12.414224 10.585715 12.414152 C 10.320551 12.414152 10.066133 12.519511 9.878609 12.707036 L 6.632988 15.952656 L 6.640059 14.828357 C 6.64006 14.696552 6.614108 14.565949 6.563615 14.444178 C 6.513184 14.32233 6.439242 14.211617 6.346003 14.118378 C 6.252764 14.025139 6.142051 13.951198 6.020204 13.900766 C 5.898424 13.850266 5.767829 13.824322 5.635996 13.824294 C 5.504092 13.824336 5.373589 13.850244 5.251712 13.90076 C 5.129906 13.951205 5.019194 14.025189 4.925997 14.118385 C 4.832729 14.211654 4.758817 14.322294 4.708301 14.444171 C 4.657856 14.565977 4.631876 14.696552 4.631906 14.828384 L 4.631877 18.36389 C 4.634706 18.495554 4.663626 18.625309 4.716729 18.745728 C 4.763964 18.867775 4.83616 18.97872 4.928649 19.071209 C 5.02121 19.163769 5.132083 19.235893 5.25413 19.283129 C 5.374621 19.336304 5.504305 19.365154 5.635969 19.367981 L 9.171503 19.367981 C 9.437799 19.367981 9.693205 19.262199 9.881508 19.073896 C 10.069811 18.885593 10.175593 18.630188 10.175593 18.363892 C 10.175593 18.097593 10.069811 17.842186 9.881509 17.653885 C 9.693206 17.46558 9.437799 17.359798 9.171501 17.359798 Z"/>
</svg>
