<svg width="2480" height="367" viewBox="0 0 2480 367" fill="none" xmlns="http://www.w3.org/2000/svg">
<mask id="path-1-outside-1_4496_17491" maskUnits="userSpaceOnUse" x="0" y="0" width="367" height="367" fill="black">
<rect fill="white" width="367" height="367"/>
<path d="M177.603 9.45994C178.29 11.0973 180.174 11.868 181.812 11.1814C183.45 10.4957 184.221 8.61142 183.534 6.97318C182.848 5.33584 180.963 4.56421 179.326 5.25081C177.688 5.9374 176.917 7.8217 177.603 9.45994Z"/>
<path d="M165.938 20.763C163.498 21.7861 160.69 20.6373 159.668 18.1975C158.645 15.7569 159.793 12.9499 162.233 11.9268C164.673 10.9046 167.481 12.0535 168.504 14.4932C169.527 16.9329 168.378 19.7399 165.938 20.763Z"/>
<path d="M111.596 24.898C112.856 26.149 114.891 26.1427 116.143 24.8826C117.395 23.6225 117.388 21.5871 116.128 20.3351C114.868 19.0841 112.832 19.0904 111.581 20.3505C110.329 21.6106 110.336 23.646 111.596 24.898Z"/>
<path d="M105.13 39.7987C103.265 41.6757 100.232 41.6866 98.3549 39.8213C96.4779 37.9569 96.4677 34.9237 98.3323 33.0467C100.197 31.1696 103.23 31.1597 105.107 33.0241C106.984 34.8884 106.995 37.9216 105.13 39.7987Z"/>
<path d="M86.2181 63.1448C89.3221 66.2277 94.3377 66.2114 97.4209 63.1068C100.504 60.0031 100.488 54.9879 97.3838 51.9041C94.2798 48.8212 89.2642 48.8375 86.1808 51.9421C83.0976 55.0458 83.1141 60.0609 86.2181 63.1448Z"/>
<path d="M79.4257 92.7815C83.1268 96.4578 89.1074 96.4379 92.784 92.7372C96.4607 89.0355 96.4408 83.0552 92.7395 79.3788C89.0385 75.7025 83.0578 75.7224 79.3812 79.4232C75.7046 83.1239 75.7245 89.1052 79.4257 92.7815Z"/>
<path d="M274.216 274.263C277.893 270.562 283.873 270.542 287.574 274.219C291.276 277.895 291.295 283.876 287.619 287.577C283.942 291.278 277.962 291.298 274.261 287.621C270.559 283.945 270.539 277.965 274.216 274.263Z"/>
<path d="M280.782 303.855C277.678 300.772 272.662 300.789 269.579 303.893C266.496 306.997 266.512 312.012 269.616 315.096C272.72 318.179 277.736 318.163 280.819 315.058C283.902 311.954 283.886 306.939 280.782 303.855Z"/>
<path d="M261.87 327.201C263.735 325.324 266.768 325.313 268.645 327.179C270.522 329.043 270.532 332.076 268.668 333.953C266.803 335.83 263.77 335.84 261.893 333.976C260.016 332.112 260.005 329.078 261.87 327.201Z"/>
<path d="M255.404 342.102C254.144 340.851 252.109 340.857 250.857 342.117C249.605 343.378 249.612 345.413 250.872 346.665C252.132 347.916 254.168 347.91 255.42 346.65C256.671 345.389 256.664 343.354 255.404 342.102Z"/>
<path d="M274.188 92.71C270.484 89.0364 270.459 83.0561 274.133 79.3517C277.806 75.6473 283.787 75.6229 287.491 79.2965C291.195 82.9692 291.22 88.9505 287.547 92.6539C283.873 96.3583 277.893 96.3836 274.188 92.71Z"/>
<path d="M303.776 86.1191C300.695 89.2255 300.716 94.2415 303.822 97.3217C306.929 100.403 311.945 100.382 315.025 97.2756C318.106 94.1692 318.085 89.1531 314.979 86.0729C311.872 82.9918 306.856 83.0126 303.776 86.1191Z"/>
<path d="M327.137 105.011C325.259 103.148 325.246 100.115 327.109 98.2363C328.972 96.3574 332.005 96.3447 333.884 98.2082C335.763 100.071 335.775 103.104 333.912 104.983C332.049 106.862 329.016 106.874 327.137 105.011Z"/>
<path d="M342.045 111.464C340.794 112.725 340.802 114.761 342.064 116.012C343.324 117.262 345.36 117.254 346.611 115.993C347.861 114.732 347.853 112.696 346.592 111.445C345.331 110.195 343.295 110.203 342.045 111.464Z"/>
<path d="M92.8116 274.29C96.5158 277.964 96.5407 283.944 92.8673 287.648C89.1938 291.353 83.2131 291.377 79.5089 287.704C75.8047 284.031 75.7799 278.05 79.4533 274.346C83.1268 270.642 89.1074 270.616 92.8116 274.29Z"/>
<path d="M63.2244 280.881C66.3051 277.775 66.2841 272.758 63.1776 269.678C60.0711 266.597 55.0554 266.618 51.9747 269.724C48.894 272.831 48.9149 277.847 52.0213 280.927C55.1278 284.008 60.1437 283.987 63.2244 280.881Z"/>
<path d="M39.8625 261.989C41.7412 263.852 41.7539 266.885 39.8908 268.764C38.0277 270.643 34.9945 270.655 33.1159 268.792C31.2372 266.929 31.2245 263.896 33.0876 262.017C34.9507 260.138 37.9839 260.126 39.8625 261.989Z"/>
<path d="M24.9555 255.536C26.2059 254.275 26.1975 252.239 24.9365 250.988C23.6757 249.738 21.6396 249.746 20.3892 251.007C19.1388 252.268 19.1471 254.305 20.4082 255.555C21.669 256.805 23.7051 256.797 24.9555 255.536Z"/>
<path d="M134.314 64.9766C129.503 66.993 123.967 64.7278 121.95 59.9171C119.934 55.1055 122.199 49.5702 127.01 47.5538C131.821 45.5366 137.356 47.8017 139.373 52.6133C141.39 57.424 139.125 62.9593 134.314 64.9766Z"/>
<path d="M139.545 35.1191C141.236 39.1537 145.878 41.0533 149.913 39.3617C153.948 37.671 155.848 33.0286 154.156 28.994C152.465 24.9595 147.823 23.0598 143.788 24.7505C139.753 26.4421 137.853 31.0846 139.545 35.1191Z"/>
<path d="M232.686 302.023C237.497 300.007 243.033 302.272 245.05 307.083C247.066 311.894 244.801 317.43 239.99 319.446C235.179 321.463 229.644 319.198 227.627 314.387C225.61 309.576 227.875 304.041 232.686 302.023Z"/>
<path d="M227.455 331.881C225.764 327.846 221.122 325.947 217.087 327.638C213.052 329.329 211.152 333.971 212.844 338.006C214.535 342.041 219.177 343.94 223.212 342.249C227.247 340.558 229.147 335.915 227.455 331.881Z"/>
<path d="M201.062 346.237C203.502 345.214 206.31 346.363 207.333 348.802C208.355 351.243 207.207 354.05 204.767 355.073C202.327 356.095 199.519 354.947 198.496 352.507C197.473 350.067 198.622 347.26 201.062 346.237Z"/>
<path d="M189.397 357.54C188.71 355.903 186.826 355.132 185.188 355.819C183.55 356.504 182.779 358.389 183.466 360.027C184.152 361.664 186.037 362.436 187.674 361.749C189.312 361.063 190.083 359.178 189.397 357.54Z"/>
<path d="M301.984 134.216C299.963 129.406 302.224 123.869 307.033 121.848C311.843 119.827 317.38 122.088 319.401 126.898C321.421 131.707 319.161 137.244 314.352 139.265C309.542 141.286 304.005 139.025 301.984 134.216Z"/>
<path d="M331.846 139.421C327.813 141.116 325.917 145.76 327.612 149.793C329.307 153.826 333.95 155.722 337.984 154.028C342.017 152.333 343.913 147.689 342.218 143.656C340.523 139.622 335.88 137.727 331.846 139.421Z"/>
<path d="M346.224 165.802C345.199 163.363 346.346 160.555 348.785 159.53C351.224 158.505 354.033 159.651 355.058 162.091C356.082 164.529 354.936 167.337 352.497 168.362C350.057 169.387 347.249 168.241 346.224 165.802Z"/>
<path d="M357.538 177.458C355.901 178.146 355.131 180.031 355.819 181.668C356.507 183.305 358.392 184.074 360.029 183.387C361.666 182.699 362.436 180.814 361.748 179.177C361.06 177.54 359.175 176.77 357.538 177.458Z"/>
<path d="M65.016 232.784C67.0369 237.594 64.7765 243.131 59.9668 245.152C55.1574 247.173 49.6202 244.912 47.5993 240.102C45.5786 235.293 47.839 229.756 52.6485 227.735C57.4581 225.714 62.9951 227.975 65.016 232.784Z"/>
<path d="M35.1537 227.579C39.1872 225.884 41.0831 221.24 39.3883 217.207C37.6935 213.174 33.0498 211.278 29.0163 212.972C24.9828 214.667 23.0872 219.311 24.782 223.344C26.4768 227.378 31.1205 229.273 35.1537 227.579Z"/>
<path d="M20.7757 201.198C21.8006 203.637 20.6542 206.445 18.2149 207.47C15.7758 208.495 12.9674 207.349 11.9425 204.909C10.9176 202.471 12.0642 199.663 14.5033 198.638C16.9426 197.613 19.7507 198.759 20.7757 201.198Z"/>
<path d="M9.46202 189.542C11.0994 188.854 11.8688 186.969 11.1808 185.332C10.4928 183.695 8.60806 182.926 6.97069 183.613C5.33355 184.301 4.56394 186.186 5.25191 187.823C5.93987 189.46 7.82488 190.23 9.46202 189.542Z"/>
<path d="M183.223 55.1761C178.006 55.2059 173.753 51.0013 173.723 45.7844C173.693 40.5685 177.897 36.315 183.114 36.2852C188.331 36.2553 192.584 40.4599 192.614 45.6759C192.644 50.8928 188.44 55.1462 183.223 55.1761Z"/>
<path d="M199.443 29.5685C199.469 33.944 203.036 37.4702 207.411 37.4449C211.786 37.4195 215.312 33.8527 215.286 29.478C215.261 25.1024 211.694 21.5762 207.319 21.6016C202.944 21.6269 199.418 25.1938 199.443 29.5685Z"/>
<path d="M229.316 26.3607C226.671 26.3761 224.513 24.2439 224.498 21.598C224.483 18.952 226.615 16.7954 229.261 16.78C231.907 16.7646 234.064 18.8977 234.079 21.5428C234.095 24.1888 231.962 26.3462 229.316 26.3607Z"/>
<path d="M244.411 20.3596C244.421 22.1353 245.869 23.5664 247.645 23.5564C249.421 23.5465 250.852 22.0982 250.842 20.3225C250.831 18.5467 249.384 17.1156 247.608 17.1256C245.832 17.1355 244.401 18.5838 244.411 20.3596Z"/>
<path d="M183.777 311.824C188.994 311.794 193.247 315.999 193.277 321.216C193.307 326.432 189.103 330.685 183.886 330.715C178.669 330.745 174.416 326.54 174.386 321.324C174.356 316.107 178.56 311.854 183.777 311.824Z"/>
<path d="M167.557 337.432C167.531 333.056 163.964 329.53 159.589 329.555C155.215 329.58 151.688 333.147 151.714 337.522C151.739 341.898 155.306 345.424 159.681 345.398C164.056 345.373 167.582 341.806 167.557 337.432Z"/>
<path d="M137.684 340.639C140.329 340.624 142.487 342.756 142.502 345.402C142.517 348.048 140.385 350.205 137.739 350.22C135.093 350.235 132.936 348.102 132.921 345.457C132.905 342.811 135.038 340.654 137.684 340.639Z"/>
<path d="M122.589 346.64C122.579 344.865 121.131 343.434 119.355 343.444C117.579 343.454 116.148 344.902 116.158 346.678C116.169 348.453 117.616 349.884 119.392 349.874C121.168 349.864 122.599 348.416 122.589 346.64Z"/>
<path d="M311.825 183.116C311.791 177.899 315.992 173.643 321.208 173.608C326.425 173.574 330.682 177.775 330.716 182.991C330.751 188.208 326.55 192.465 321.333 192.499C316.116 192.533 311.859 188.332 311.825 183.116Z"/>
<path d="M337.446 199.314C333.071 199.343 329.548 202.913 329.577 207.288C329.606 211.663 333.176 215.186 337.551 215.157C341.926 215.128 345.449 211.558 345.42 207.184C345.391 202.809 341.821 199.285 337.446 199.314Z"/>
<path d="M340.679 229.184C340.662 226.538 342.792 224.379 345.438 224.362C348.084 224.345 350.243 226.475 350.26 229.121C350.278 231.766 348.147 233.926 345.501 233.943C342.856 233.96 340.697 231.83 340.679 229.184Z"/>
<path d="M346.694 244.273C344.918 244.285 343.488 245.734 343.499 247.51C343.511 249.286 344.96 250.716 346.736 250.704C348.512 250.692 349.942 249.243 349.93 247.467C349.919 245.692 348.47 244.262 346.694 244.273Z"/>
<path d="M55.1751 183.884C55.2094 189.101 51.0084 193.358 45.7916 193.392C40.5749 193.426 36.318 189.225 36.2836 184.009C36.2492 178.792 40.4503 174.535 45.667 174.501C50.8838 174.467 55.1407 178.668 55.1751 183.884Z"/>
<path d="M29.5537 167.686C33.9287 167.657 37.4519 164.087 37.423 159.712C37.3943 155.337 33.8242 151.814 29.4492 151.843C25.0744 151.872 21.5512 155.442 21.5801 159.816C21.6088 164.191 25.1789 167.715 29.5537 167.686Z"/>
<path d="M26.3208 137.816C26.3382 140.462 24.2076 142.621 21.5618 142.638C18.916 142.655 16.7571 140.525 16.7397 137.879C16.7223 135.234 18.8529 133.074 21.4987 133.057C24.1445 133.04 26.3034 135.17 26.3208 137.816Z"/>
<path d="M20.3064 122.727C22.0822 122.715 23.5122 121.266 23.5006 119.49C23.4889 117.714 22.0397 116.284 20.2639 116.296C18.4881 116.308 17.0579 117.757 17.0697 119.533C17.0814 121.308 18.5304 122.738 20.3064 122.727Z"/>
<path d="M232.467 64.8852C227.638 62.9123 225.323 57.3978 227.296 52.5681C229.269 47.7393 234.783 45.4244 239.613 47.3974C244.442 49.3703 246.757 54.8848 244.784 59.7145C242.811 64.5433 237.296 66.8582 232.467 64.8852Z"/>
<path d="M257.269 47.4589C255.614 51.5088 257.556 56.1331 261.606 57.7877C265.656 59.4431 270.28 57.5009 271.935 53.451C273.59 49.4011 271.648 44.7767 267.598 43.1222C263.549 41.4668 258.924 43.4089 257.269 47.4589Z"/>
<path d="M286.087 55.954C283.638 54.9535 282.464 52.1565 283.465 49.7077C284.466 47.258 287.262 46.0839 289.711 47.0853C292.161 48.0858 293.335 50.8828 292.334 53.3316C291.333 55.7813 288.537 56.9554 286.087 55.954Z"/>
<path d="M302.329 56.2019C301.658 57.8456 302.446 59.7226 304.09 60.3938C305.734 61.066 307.611 60.2781 308.283 58.6344C308.954 56.9898 308.166 55.1127 306.522 54.4415C304.878 53.7694 303.001 54.5573 302.329 56.2019Z"/>
<path d="M134.533 302.115C139.362 304.088 141.678 309.602 139.704 314.432C137.731 319.261 132.217 321.576 127.387 319.603C122.558 317.63 120.243 312.115 122.216 307.286C124.189 302.457 129.704 300.142 134.533 302.115Z"/>
<path d="M109.731 319.541C111.386 315.491 109.444 310.867 105.394 309.212C101.344 307.557 96.7196 309.499 95.0648 313.549C93.4098 317.599 95.3516 322.223 99.4016 323.878C103.451 325.533 108.076 323.591 109.731 319.541Z"/>
<path d="M80.9127 311.046C83.3617 312.046 84.5359 314.844 83.5352 317.292C82.5345 319.742 79.7376 320.916 77.2886 319.915C74.8393 318.914 73.6651 316.117 74.6658 313.668C75.6666 311.219 78.4634 310.045 80.9127 311.046Z"/>
<path d="M64.6707 310.798C65.3423 309.154 64.5542 307.277 62.9103 306.606C61.2663 305.934 59.389 306.722 58.7173 308.366C58.0457 310.01 58.8338 311.887 60.4777 312.558C62.1217 313.231 63.9987 312.443 64.6707 310.798Z"/>
<path d="M302.157 232.367C304.126 227.536 309.639 225.216 314.47 227.185C319.301 229.155 321.62 234.667 319.651 239.498C317.682 244.329 312.169 246.649 307.338 244.679C302.508 242.71 300.188 237.197 302.157 232.367Z"/>
<path d="M319.605 257.154C315.554 255.502 310.931 257.448 309.279 261.499C307.628 265.551 309.573 270.173 313.624 271.825C317.676 273.477 322.299 271.531 323.95 267.479C325.602 263.428 323.656 258.805 319.605 257.154Z"/>
<path d="M311.133 285.979C312.132 283.529 314.928 282.353 317.378 283.351C319.828 284.35 321.004 287.145 320.006 289.596C319.007 292.046 316.211 293.223 313.761 292.224C311.311 291.225 310.134 288.429 311.133 285.979Z"/>
<path d="M310.9 302.221C309.255 301.55 307.379 302.34 306.708 303.985C306.038 305.629 306.828 307.505 308.472 308.176C310.117 308.846 311.993 308.057 312.664 306.413C313.334 304.768 312.544 302.891 310.9 302.221Z"/>
<path d="M64.843 134.633C62.8739 139.464 57.3613 141.784 52.5304 139.815C47.6995 137.845 45.3796 132.333 47.349 127.502C49.3181 122.672 54.8306 120.351 59.6615 122.321C64.4924 124.29 66.8123 129.803 64.843 134.633Z"/>
<path d="M47.3951 109.846C51.4464 111.498 56.0695 109.552 57.7209 105.501C59.3723 101.449 57.4269 96.8269 53.3755 95.1751C49.3242 93.5233 44.7011 95.4691 43.0497 99.5208C41.3981 103.572 43.3437 108.195 47.3951 109.846Z"/>
<path d="M55.8669 81.0207C54.8682 83.4713 52.0722 84.6473 49.6223 83.6486C47.1721 82.6499 45.9956 79.8547 46.9943 77.4041C47.993 74.9544 50.789 73.7775 53.2389 74.7762C55.6891 75.7749 56.8656 78.571 55.8669 81.0207Z"/>
<path d="M56.1003 64.7794C57.7449 65.4497 59.6213 64.66 60.2918 63.0154C60.9622 61.3708 60.1724 59.4947 58.5278 58.8243C56.8834 58.154 55.0068 58.9429 54.3365 60.5874C53.6662 62.232 54.4559 64.1091 56.1003 64.7794Z"/>
</mask>
<path d="M177.603 9.45994C178.29 11.0973 180.174 11.868 181.812 11.1814C183.45 10.4957 184.221 8.61142 183.534 6.97318C182.848 5.33584 180.963 4.56421 179.326 5.25081C177.688 5.9374 176.917 7.8217 177.603 9.45994Z" fill="url(#paint0_linear_4496_17491)"/>
<path d="M165.938 20.763C163.498 21.7861 160.69 20.6373 159.668 18.1975C158.645 15.7569 159.793 12.9499 162.233 11.9268C164.673 10.9046 167.481 12.0535 168.504 14.4932C169.527 16.9329 168.378 19.7399 165.938 20.763Z" fill="url(#paint1_linear_4496_17491)"/>
<path d="M111.596 24.898C112.856 26.149 114.891 26.1427 116.143 24.8826C117.395 23.6225 117.388 21.5871 116.128 20.3351C114.868 19.0841 112.832 19.0904 111.581 20.3505C110.329 21.6106 110.336 23.646 111.596 24.898Z" fill="url(#paint2_linear_4496_17491)"/>
<path d="M105.13 39.7987C103.265 41.6757 100.232 41.6866 98.3549 39.8213C96.4779 37.9569 96.4677 34.9237 98.3323 33.0467C100.197 31.1696 103.23 31.1597 105.107 33.0241C106.984 34.8884 106.995 37.9216 105.13 39.7987Z" fill="url(#paint3_linear_4496_17491)"/>
<path d="M86.2181 63.1448C89.3221 66.2277 94.3377 66.2114 97.4209 63.1068C100.504 60.0031 100.488 54.9879 97.3838 51.9041C94.2798 48.8212 89.2642 48.8375 86.1808 51.9421C83.0976 55.0458 83.1141 60.0609 86.2181 63.1448Z" fill="url(#paint4_linear_4496_17491)"/>
<path d="M79.4257 92.7815C83.1268 96.4578 89.1074 96.4379 92.784 92.7372C96.4607 89.0355 96.4408 83.0552 92.7395 79.3788C89.0385 75.7025 83.0578 75.7224 79.3812 79.4232C75.7046 83.1239 75.7245 89.1052 79.4257 92.7815Z" fill="url(#paint5_linear_4496_17491)"/>
<path d="M274.216 274.263C277.893 270.562 283.873 270.542 287.574 274.219C291.276 277.895 291.295 283.876 287.619 287.577C283.942 291.278 277.962 291.298 274.261 287.621C270.559 283.945 270.539 277.965 274.216 274.263Z" fill="url(#paint6_linear_4496_17491)"/>
<path d="M280.782 303.855C277.678 300.772 272.662 300.789 269.579 303.893C266.496 306.997 266.512 312.012 269.616 315.096C272.72 318.179 277.736 318.163 280.819 315.058C283.902 311.954 283.886 306.939 280.782 303.855Z" fill="url(#paint7_linear_4496_17491)"/>
<path d="M261.87 327.201C263.735 325.324 266.768 325.313 268.645 327.179C270.522 329.043 270.532 332.076 268.668 333.953C266.803 335.83 263.77 335.84 261.893 333.976C260.016 332.112 260.005 329.078 261.87 327.201Z" fill="url(#paint8_linear_4496_17491)"/>
<path d="M255.404 342.102C254.144 340.851 252.109 340.857 250.857 342.117C249.605 343.378 249.612 345.413 250.872 346.665C252.132 347.916 254.168 347.91 255.42 346.65C256.671 345.389 256.664 343.354 255.404 342.102Z" fill="url(#paint9_linear_4496_17491)"/>
<path d="M274.188 92.71C270.484 89.0364 270.459 83.0561 274.133 79.3517C277.806 75.6473 283.787 75.6229 287.491 79.2965C291.195 82.9692 291.22 88.9505 287.547 92.6539C283.873 96.3583 277.893 96.3836 274.188 92.71Z" fill="url(#paint10_linear_4496_17491)"/>
<path d="M303.776 86.1191C300.695 89.2255 300.716 94.2415 303.822 97.3217C306.929 100.403 311.945 100.382 315.025 97.2756C318.106 94.1692 318.085 89.1531 314.979 86.0729C311.872 82.9918 306.856 83.0126 303.776 86.1191Z" fill="url(#paint11_linear_4496_17491)"/>
<path d="M327.137 105.011C325.259 103.148 325.246 100.115 327.109 98.2363C328.972 96.3574 332.005 96.3447 333.884 98.2082C335.763 100.071 335.775 103.104 333.912 104.983C332.049 106.862 329.016 106.874 327.137 105.011Z" fill="url(#paint12_linear_4496_17491)"/>
<path d="M342.045 111.464C340.794 112.725 340.802 114.761 342.064 116.012C343.324 117.262 345.36 117.254 346.611 115.993C347.861 114.732 347.853 112.696 346.592 111.445C345.331 110.195 343.295 110.203 342.045 111.464Z" fill="url(#paint13_linear_4496_17491)"/>
<path d="M92.8116 274.29C96.5158 277.964 96.5407 283.944 92.8673 287.648C89.1938 291.353 83.2131 291.377 79.5089 287.704C75.8047 284.031 75.7799 278.05 79.4533 274.346C83.1268 270.642 89.1074 270.616 92.8116 274.29Z" fill="url(#paint14_linear_4496_17491)"/>
<path d="M63.2244 280.881C66.3051 277.775 66.2841 272.758 63.1776 269.678C60.0711 266.597 55.0554 266.618 51.9747 269.724C48.894 272.831 48.9149 277.847 52.0213 280.927C55.1278 284.008 60.1437 283.987 63.2244 280.881Z" fill="url(#paint15_linear_4496_17491)"/>
<path d="M39.8625 261.989C41.7412 263.852 41.7539 266.885 39.8908 268.764C38.0277 270.643 34.9945 270.655 33.1159 268.792C31.2372 266.929 31.2245 263.896 33.0876 262.017C34.9507 260.138 37.9839 260.126 39.8625 261.989Z" fill="url(#paint16_linear_4496_17491)"/>
<path d="M24.9555 255.536C26.2059 254.275 26.1975 252.239 24.9365 250.988C23.6757 249.738 21.6396 249.746 20.3892 251.007C19.1388 252.268 19.1471 254.305 20.4082 255.555C21.669 256.805 23.7051 256.797 24.9555 255.536Z" fill="url(#paint17_linear_4496_17491)"/>
<path d="M134.314 64.9766C129.503 66.993 123.967 64.7278 121.95 59.9171C119.934 55.1055 122.199 49.5702 127.01 47.5538C131.821 45.5366 137.356 47.8017 139.373 52.6133C141.39 57.424 139.125 62.9593 134.314 64.9766Z" fill="url(#paint18_linear_4496_17491)"/>
<path d="M139.545 35.1191C141.236 39.1537 145.878 41.0533 149.913 39.3617C153.948 37.671 155.848 33.0286 154.156 28.994C152.465 24.9595 147.823 23.0598 143.788 24.7505C139.753 26.4421 137.853 31.0846 139.545 35.1191Z" fill="url(#paint19_linear_4496_17491)"/>
<path d="M232.686 302.023C237.497 300.007 243.033 302.272 245.05 307.083C247.066 311.894 244.801 317.43 239.99 319.446C235.179 321.463 229.644 319.198 227.627 314.387C225.61 309.576 227.875 304.041 232.686 302.023Z" fill="url(#paint20_linear_4496_17491)"/>
<path d="M227.455 331.881C225.764 327.846 221.122 325.947 217.087 327.638C213.052 329.329 211.152 333.971 212.844 338.006C214.535 342.041 219.177 343.94 223.212 342.249C227.247 340.558 229.147 335.915 227.455 331.881Z" fill="url(#paint21_linear_4496_17491)"/>
<path d="M201.062 346.237C203.502 345.214 206.31 346.363 207.333 348.802C208.355 351.243 207.207 354.05 204.767 355.073C202.327 356.095 199.519 354.947 198.496 352.507C197.473 350.067 198.622 347.26 201.062 346.237Z" fill="url(#paint22_linear_4496_17491)"/>
<path d="M189.397 357.54C188.71 355.903 186.826 355.132 185.188 355.819C183.55 356.504 182.779 358.389 183.466 360.027C184.152 361.664 186.037 362.436 187.674 361.749C189.312 361.063 190.083 359.178 189.397 357.54Z" fill="url(#paint23_linear_4496_17491)"/>
<path d="M301.984 134.216C299.963 129.406 302.224 123.869 307.033 121.848C311.843 119.827 317.38 122.088 319.401 126.898C321.421 131.707 319.161 137.244 314.352 139.265C309.542 141.286 304.005 139.025 301.984 134.216Z" fill="url(#paint24_linear_4496_17491)"/>
<path d="M331.846 139.421C327.813 141.116 325.917 145.76 327.612 149.793C329.307 153.826 333.95 155.722 337.984 154.028C342.017 152.333 343.913 147.689 342.218 143.656C340.523 139.622 335.88 137.727 331.846 139.421Z" fill="url(#paint25_linear_4496_17491)"/>
<path d="M346.224 165.802C345.199 163.363 346.346 160.555 348.785 159.53C351.224 158.505 354.033 159.651 355.058 162.091C356.082 164.529 354.936 167.337 352.497 168.362C350.057 169.387 347.249 168.241 346.224 165.802Z" fill="url(#paint26_linear_4496_17491)"/>
<path d="M357.538 177.458C355.901 178.146 355.131 180.031 355.819 181.668C356.507 183.305 358.392 184.074 360.029 183.387C361.666 182.699 362.436 180.814 361.748 179.177C361.06 177.54 359.175 176.77 357.538 177.458Z" fill="url(#paint27_linear_4496_17491)"/>
<path d="M65.016 232.784C67.0369 237.594 64.7765 243.131 59.9668 245.152C55.1574 247.173 49.6202 244.912 47.5993 240.102C45.5786 235.293 47.839 229.756 52.6485 227.735C57.4581 225.714 62.9951 227.975 65.016 232.784Z" fill="url(#paint28_linear_4496_17491)"/>
<path d="M35.1537 227.579C39.1872 225.884 41.0831 221.24 39.3883 217.207C37.6935 213.174 33.0498 211.278 29.0163 212.972C24.9828 214.667 23.0872 219.311 24.782 223.344C26.4768 227.378 31.1205 229.273 35.1537 227.579Z" fill="url(#paint29_linear_4496_17491)"/>
<path d="M20.7757 201.198C21.8006 203.637 20.6542 206.445 18.2149 207.47C15.7758 208.495 12.9674 207.349 11.9425 204.909C10.9176 202.471 12.0642 199.663 14.5033 198.638C16.9426 197.613 19.7507 198.759 20.7757 201.198Z" fill="url(#paint30_linear_4496_17491)"/>
<path d="M9.46202 189.542C11.0994 188.854 11.8688 186.969 11.1808 185.332C10.4928 183.695 8.60806 182.926 6.97069 183.613C5.33355 184.301 4.56394 186.186 5.25191 187.823C5.93987 189.46 7.82488 190.23 9.46202 189.542Z" fill="url(#paint31_linear_4496_17491)"/>
<path d="M183.223 55.1761C178.006 55.2059 173.753 51.0013 173.723 45.7844C173.693 40.5685 177.897 36.315 183.114 36.2852C188.331 36.2553 192.584 40.4599 192.614 45.6759C192.644 50.8928 188.44 55.1462 183.223 55.1761Z" fill="url(#paint32_linear_4496_17491)"/>
<path d="M199.443 29.5685C199.469 33.944 203.036 37.4702 207.411 37.4449C211.786 37.4195 215.312 33.8527 215.286 29.478C215.261 25.1024 211.694 21.5762 207.319 21.6016C202.944 21.6269 199.418 25.1938 199.443 29.5685Z" fill="url(#paint33_linear_4496_17491)"/>
<path d="M229.316 26.3607C226.671 26.3761 224.513 24.2439 224.498 21.598C224.483 18.952 226.615 16.7954 229.261 16.78C231.907 16.7646 234.064 18.8977 234.079 21.5428C234.095 24.1888 231.962 26.3462 229.316 26.3607Z" fill="url(#paint34_linear_4496_17491)"/>
<path d="M244.411 20.3596C244.421 22.1353 245.869 23.5664 247.645 23.5564C249.421 23.5465 250.852 22.0982 250.842 20.3225C250.831 18.5467 249.384 17.1156 247.608 17.1256C245.832 17.1355 244.401 18.5838 244.411 20.3596Z" fill="url(#paint35_linear_4496_17491)"/>
<path d="M183.777 311.824C188.994 311.794 193.247 315.999 193.277 321.216C193.307 326.432 189.103 330.685 183.886 330.715C178.669 330.745 174.416 326.54 174.386 321.324C174.356 316.107 178.56 311.854 183.777 311.824Z" fill="url(#paint36_linear_4496_17491)"/>
<path d="M167.557 337.432C167.531 333.056 163.964 329.53 159.589 329.555C155.215 329.58 151.688 333.147 151.714 337.522C151.739 341.898 155.306 345.424 159.681 345.398C164.056 345.373 167.582 341.806 167.557 337.432Z" fill="url(#paint37_linear_4496_17491)"/>
<path d="M137.684 340.639C140.329 340.624 142.487 342.756 142.502 345.402C142.517 348.048 140.385 350.205 137.739 350.22C135.093 350.235 132.936 348.102 132.921 345.457C132.905 342.811 135.038 340.654 137.684 340.639Z" fill="url(#paint38_linear_4496_17491)"/>
<path d="M122.589 346.64C122.579 344.865 121.131 343.434 119.355 343.444C117.579 343.454 116.148 344.902 116.158 346.678C116.169 348.453 117.616 349.884 119.392 349.874C121.168 349.864 122.599 348.416 122.589 346.64Z" fill="url(#paint39_linear_4496_17491)"/>
<path d="M311.825 183.116C311.791 177.899 315.992 173.643 321.208 173.608C326.425 173.574 330.682 177.775 330.716 182.991C330.751 188.208 326.55 192.465 321.333 192.499C316.116 192.533 311.859 188.332 311.825 183.116Z" fill="url(#paint40_linear_4496_17491)"/>
<path d="M337.446 199.314C333.071 199.343 329.548 202.913 329.577 207.288C329.606 211.663 333.176 215.186 337.551 215.157C341.926 215.128 345.449 211.558 345.42 207.184C345.391 202.809 341.821 199.285 337.446 199.314Z" fill="url(#paint41_linear_4496_17491)"/>
<path d="M340.679 229.184C340.662 226.538 342.792 224.379 345.438 224.362C348.084 224.345 350.243 226.475 350.26 229.121C350.278 231.766 348.147 233.926 345.501 233.943C342.856 233.96 340.697 231.83 340.679 229.184Z" fill="url(#paint42_linear_4496_17491)"/>
<path d="M346.694 244.273C344.918 244.285 343.488 245.734 343.499 247.51C343.511 249.286 344.96 250.716 346.736 250.704C348.512 250.692 349.942 249.243 349.93 247.467C349.919 245.692 348.47 244.262 346.694 244.273Z" fill="url(#paint43_linear_4496_17491)"/>
<path d="M55.1751 183.884C55.2094 189.101 51.0084 193.358 45.7916 193.392C40.5749 193.426 36.318 189.225 36.2836 184.009C36.2492 178.792 40.4503 174.535 45.667 174.501C50.8838 174.467 55.1407 178.668 55.1751 183.884Z" fill="url(#paint44_linear_4496_17491)"/>
<path d="M29.5537 167.686C33.9287 167.657 37.4519 164.087 37.423 159.712C37.3943 155.337 33.8242 151.814 29.4492 151.843C25.0744 151.872 21.5512 155.442 21.5801 159.816C21.6088 164.191 25.1789 167.715 29.5537 167.686Z" fill="url(#paint45_linear_4496_17491)"/>
<path d="M26.3208 137.816C26.3382 140.462 24.2076 142.621 21.5618 142.638C18.916 142.655 16.7571 140.525 16.7397 137.879C16.7223 135.234 18.8529 133.074 21.4987 133.057C24.1445 133.04 26.3034 135.17 26.3208 137.816Z" fill="url(#paint46_linear_4496_17491)"/>
<path d="M20.3064 122.727C22.0822 122.715 23.5122 121.266 23.5006 119.49C23.4889 117.714 22.0397 116.284 20.2639 116.296C18.4881 116.308 17.0579 117.757 17.0697 119.533C17.0814 121.308 18.5304 122.738 20.3064 122.727Z" fill="url(#paint47_linear_4496_17491)"/>
<path d="M232.467 64.8852C227.638 62.9123 225.323 57.3978 227.296 52.5681C229.269 47.7393 234.783 45.4244 239.613 47.3974C244.442 49.3703 246.757 54.8848 244.784 59.7145C242.811 64.5433 237.296 66.8582 232.467 64.8852Z" fill="url(#paint48_linear_4496_17491)"/>
<path d="M257.269 47.4589C255.614 51.5088 257.556 56.1331 261.606 57.7877C265.656 59.4431 270.28 57.5009 271.935 53.451C273.59 49.4011 271.648 44.7767 267.598 43.1222C263.549 41.4668 258.924 43.4089 257.269 47.4589Z" fill="url(#paint49_linear_4496_17491)"/>
<path d="M286.087 55.954C283.638 54.9535 282.464 52.1565 283.465 49.7077C284.466 47.258 287.262 46.0839 289.711 47.0853C292.161 48.0858 293.335 50.8828 292.334 53.3316C291.333 55.7813 288.537 56.9554 286.087 55.954Z" fill="url(#paint50_linear_4496_17491)"/>
<path d="M302.329 56.2019C301.658 57.8456 302.446 59.7226 304.09 60.3938C305.734 61.066 307.611 60.2781 308.283 58.6344C308.954 56.9898 308.166 55.1127 306.522 54.4415C304.878 53.7694 303.001 54.5573 302.329 56.2019Z" fill="url(#paint51_linear_4496_17491)"/>
<path d="M134.533 302.115C139.362 304.088 141.678 309.602 139.704 314.432C137.731 319.261 132.217 321.576 127.387 319.603C122.558 317.63 120.243 312.115 122.216 307.286C124.189 302.457 129.704 300.142 134.533 302.115Z" fill="url(#paint52_linear_4496_17491)"/>
<path d="M109.731 319.541C111.386 315.491 109.444 310.867 105.394 309.212C101.344 307.557 96.7196 309.499 95.0648 313.549C93.4098 317.599 95.3516 322.223 99.4016 323.878C103.451 325.533 108.076 323.591 109.731 319.541Z" fill="url(#paint53_linear_4496_17491)"/>
<path d="M80.9127 311.046C83.3617 312.046 84.5359 314.844 83.5352 317.292C82.5345 319.742 79.7376 320.916 77.2886 319.915C74.8393 318.914 73.6651 316.117 74.6658 313.668C75.6666 311.219 78.4634 310.045 80.9127 311.046Z" fill="url(#paint54_linear_4496_17491)"/>
<path d="M64.6707 310.798C65.3423 309.154 64.5542 307.277 62.9103 306.606C61.2663 305.934 59.389 306.722 58.7173 308.366C58.0457 310.01 58.8338 311.887 60.4777 312.558C62.1217 313.231 63.9987 312.443 64.6707 310.798Z" fill="url(#paint55_linear_4496_17491)"/>
<path d="M302.157 232.367C304.126 227.536 309.639 225.216 314.47 227.185C319.301 229.155 321.62 234.667 319.651 239.498C317.682 244.329 312.169 246.649 307.338 244.679C302.508 242.71 300.188 237.197 302.157 232.367Z" fill="url(#paint56_linear_4496_17491)"/>
<path d="M319.605 257.154C315.554 255.502 310.931 257.448 309.279 261.499C307.628 265.551 309.573 270.173 313.624 271.825C317.676 273.477 322.299 271.531 323.95 267.479C325.602 263.428 323.656 258.805 319.605 257.154Z" fill="url(#paint57_linear_4496_17491)"/>
<path d="M311.133 285.979C312.132 283.529 314.928 282.353 317.378 283.351C319.828 284.35 321.004 287.145 320.006 289.596C319.007 292.046 316.211 293.223 313.761 292.224C311.311 291.225 310.134 288.429 311.133 285.979Z" fill="url(#paint58_linear_4496_17491)"/>
<path d="M310.9 302.221C309.255 301.55 307.379 302.34 306.708 303.985C306.038 305.629 306.828 307.505 308.472 308.176C310.117 308.846 311.993 308.057 312.664 306.413C313.334 304.768 312.544 302.891 310.9 302.221Z" fill="url(#paint59_linear_4496_17491)"/>
<path d="M64.843 134.633C62.8739 139.464 57.3613 141.784 52.5304 139.815C47.6995 137.845 45.3796 132.333 47.349 127.502C49.3181 122.672 54.8306 120.351 59.6615 122.321C64.4924 124.29 66.8123 129.803 64.843 134.633Z" fill="url(#paint60_linear_4496_17491)"/>
<path d="M47.3951 109.846C51.4464 111.498 56.0695 109.552 57.7209 105.501C59.3723 101.449 57.4269 96.8269 53.3755 95.1751C49.3242 93.5233 44.7011 95.4691 43.0497 99.5208C41.3981 103.572 43.3437 108.195 47.3951 109.846Z" fill="url(#paint61_linear_4496_17491)"/>
<path d="M55.8669 81.0207C54.8682 83.4713 52.0722 84.6473 49.6223 83.6486C47.1721 82.6499 45.9956 79.8547 46.9943 77.4041C47.993 74.9544 50.789 73.7775 53.2389 74.7762C55.6891 75.7749 56.8656 78.571 55.8669 81.0207Z" fill="url(#paint62_linear_4496_17491)"/>
<path d="M56.1003 64.7794C57.7449 65.4497 59.6213 64.66 60.2918 63.0154C60.9622 61.3708 60.1724 59.4947 58.5278 58.8243C56.8834 58.154 55.0068 58.9429 54.3365 60.5874C53.6662 62.232 54.4559 64.1091 56.1003 64.7794Z" fill="url(#paint63_linear_4496_17491)"/>
<path d="M177.603 9.45994C178.29 11.0973 180.174 11.868 181.812 11.1814C183.45 10.4957 184.221 8.61142 183.534 6.97318C182.848 5.33584 180.963 4.56421 179.326 5.25081C177.688 5.9374 176.917 7.8217 177.603 9.45994Z" stroke="url(#paint64_linear_4496_17491)" stroke-width="9.05325" mask="url(#path-1-outside-1_4496_17491)"/>
<path d="M165.938 20.763C163.498 21.7861 160.69 20.6373 159.668 18.1975C158.645 15.7569 159.793 12.9499 162.233 11.9268C164.673 10.9046 167.481 12.0535 168.504 14.4932C169.527 16.9329 168.378 19.7399 165.938 20.763Z" stroke="url(#paint65_linear_4496_17491)" stroke-width="9.05325" mask="url(#path-1-outside-1_4496_17491)"/>
<path d="M111.596 24.898C112.856 26.149 114.891 26.1427 116.143 24.8826C117.395 23.6225 117.388 21.5871 116.128 20.3351C114.868 19.0841 112.832 19.0904 111.581 20.3505C110.329 21.6106 110.336 23.646 111.596 24.898Z" stroke="url(#paint66_linear_4496_17491)" stroke-width="9.05325" mask="url(#path-1-outside-1_4496_17491)"/>
<path d="M105.13 39.7987C103.265 41.6757 100.232 41.6866 98.3549 39.8213C96.4779 37.9569 96.4677 34.9237 98.3323 33.0467C100.197 31.1696 103.23 31.1597 105.107 33.0241C106.984 34.8884 106.995 37.9216 105.13 39.7987Z" stroke="url(#paint67_linear_4496_17491)" stroke-width="9.05325" mask="url(#path-1-outside-1_4496_17491)"/>
<path d="M86.2181 63.1448C89.3221 66.2277 94.3377 66.2114 97.4209 63.1068C100.504 60.0031 100.488 54.9879 97.3838 51.9041C94.2798 48.8212 89.2642 48.8375 86.1808 51.9421C83.0976 55.0458 83.1141 60.0609 86.2181 63.1448Z" stroke="url(#paint68_linear_4496_17491)" stroke-width="9.05325" mask="url(#path-1-outside-1_4496_17491)"/>
<path d="M79.4257 92.7815C83.1268 96.4578 89.1074 96.4379 92.784 92.7372C96.4607 89.0355 96.4408 83.0552 92.7395 79.3788C89.0385 75.7025 83.0578 75.7224 79.3812 79.4232C75.7046 83.1239 75.7245 89.1052 79.4257 92.7815Z" stroke="url(#paint69_linear_4496_17491)" stroke-width="9.05325" mask="url(#path-1-outside-1_4496_17491)"/>
<path d="M274.216 274.263C277.893 270.562 283.873 270.542 287.574 274.219C291.276 277.895 291.295 283.876 287.619 287.577C283.942 291.278 277.962 291.298 274.261 287.621C270.559 283.945 270.539 277.965 274.216 274.263Z" stroke="url(#paint70_linear_4496_17491)" stroke-width="9.05325" mask="url(#path-1-outside-1_4496_17491)"/>
<path d="M280.782 303.855C277.678 300.772 272.662 300.789 269.579 303.893C266.496 306.997 266.512 312.012 269.616 315.096C272.72 318.179 277.736 318.163 280.819 315.058C283.902 311.954 283.886 306.939 280.782 303.855Z" stroke="url(#paint71_linear_4496_17491)" stroke-width="9.05325" mask="url(#path-1-outside-1_4496_17491)"/>
<path d="M261.87 327.201C263.735 325.324 266.768 325.313 268.645 327.179C270.522 329.043 270.532 332.076 268.668 333.953C266.803 335.83 263.77 335.84 261.893 333.976C260.016 332.112 260.005 329.078 261.87 327.201Z" stroke="url(#paint72_linear_4496_17491)" stroke-width="9.05325" mask="url(#path-1-outside-1_4496_17491)"/>
<path d="M255.404 342.102C254.144 340.851 252.109 340.857 250.857 342.117C249.605 343.378 249.612 345.413 250.872 346.665C252.132 347.916 254.168 347.91 255.42 346.65C256.671 345.389 256.664 343.354 255.404 342.102Z" stroke="url(#paint73_linear_4496_17491)" stroke-width="9.05325" mask="url(#path-1-outside-1_4496_17491)"/>
<path d="M274.188 92.71C270.484 89.0364 270.459 83.0561 274.133 79.3517C277.806 75.6473 283.787 75.6229 287.491 79.2965C291.195 82.9692 291.22 88.9505 287.547 92.6539C283.873 96.3583 277.893 96.3836 274.188 92.71Z" stroke="url(#paint74_linear_4496_17491)" stroke-width="9.05325" mask="url(#path-1-outside-1_4496_17491)"/>
<path d="M303.776 86.1191C300.695 89.2255 300.716 94.2415 303.822 97.3217C306.929 100.403 311.945 100.382 315.025 97.2756C318.106 94.1692 318.085 89.1531 314.979 86.0729C311.872 82.9918 306.856 83.0126 303.776 86.1191Z" stroke="url(#paint75_linear_4496_17491)" stroke-width="9.05325" mask="url(#path-1-outside-1_4496_17491)"/>
<path d="M327.137 105.011C325.259 103.148 325.246 100.115 327.109 98.2363C328.972 96.3574 332.005 96.3447 333.884 98.2082C335.763 100.071 335.775 103.104 333.912 104.983C332.049 106.862 329.016 106.874 327.137 105.011Z" stroke="url(#paint76_linear_4496_17491)" stroke-width="9.05325" mask="url(#path-1-outside-1_4496_17491)"/>
<path d="M342.045 111.464C340.794 112.725 340.802 114.761 342.064 116.012C343.324 117.262 345.36 117.254 346.611 115.993C347.861 114.732 347.853 112.696 346.592 111.445C345.331 110.195 343.295 110.203 342.045 111.464Z" stroke="url(#paint77_linear_4496_17491)" stroke-width="9.05325" mask="url(#path-1-outside-1_4496_17491)"/>
<path d="M92.8116 274.29C96.5158 277.964 96.5407 283.944 92.8673 287.648C89.1938 291.353 83.2131 291.377 79.5089 287.704C75.8047 284.031 75.7799 278.05 79.4533 274.346C83.1268 270.642 89.1074 270.616 92.8116 274.29Z" stroke="url(#paint78_linear_4496_17491)" stroke-width="9.05325" mask="url(#path-1-outside-1_4496_17491)"/>
<path d="M63.2244 280.881C66.3051 277.775 66.2841 272.758 63.1776 269.678C60.0711 266.597 55.0554 266.618 51.9747 269.724C48.894 272.831 48.9149 277.847 52.0213 280.927C55.1278 284.008 60.1437 283.987 63.2244 280.881Z" stroke="url(#paint79_linear_4496_17491)" stroke-width="9.05325" mask="url(#path-1-outside-1_4496_17491)"/>
<path d="M39.8625 261.989C41.7412 263.852 41.7539 266.885 39.8908 268.764C38.0277 270.643 34.9945 270.655 33.1159 268.792C31.2372 266.929 31.2245 263.896 33.0876 262.017C34.9507 260.138 37.9839 260.126 39.8625 261.989Z" stroke="url(#paint80_linear_4496_17491)" stroke-width="9.05325" mask="url(#path-1-outside-1_4496_17491)"/>
<path d="M24.9555 255.536C26.2059 254.275 26.1975 252.239 24.9365 250.988C23.6757 249.738 21.6396 249.746 20.3892 251.007C19.1388 252.268 19.1471 254.305 20.4082 255.555C21.669 256.805 23.7051 256.797 24.9555 255.536Z" stroke="url(#paint81_linear_4496_17491)" stroke-width="9.05325" mask="url(#path-1-outside-1_4496_17491)"/>
<path d="M134.314 64.9766C129.503 66.993 123.967 64.7278 121.95 59.9171C119.934 55.1055 122.199 49.5702 127.01 47.5538C131.821 45.5366 137.356 47.8017 139.373 52.6133C141.39 57.424 139.125 62.9593 134.314 64.9766Z" stroke="url(#paint82_linear_4496_17491)" stroke-width="9.05325" mask="url(#path-1-outside-1_4496_17491)"/>
<path d="M139.545 35.1191C141.236 39.1537 145.878 41.0533 149.913 39.3617C153.948 37.671 155.848 33.0286 154.156 28.994C152.465 24.9595 147.823 23.0598 143.788 24.7505C139.753 26.4421 137.853 31.0846 139.545 35.1191Z" stroke="url(#paint83_linear_4496_17491)" stroke-width="9.05325" mask="url(#path-1-outside-1_4496_17491)"/>
<path d="M232.686 302.023C237.497 300.007 243.033 302.272 245.05 307.083C247.066 311.894 244.801 317.43 239.99 319.446C235.179 321.463 229.644 319.198 227.627 314.387C225.61 309.576 227.875 304.041 232.686 302.023Z" stroke="url(#paint84_linear_4496_17491)" stroke-width="9.05325" mask="url(#path-1-outside-1_4496_17491)"/>
<path d="M227.455 331.881C225.764 327.846 221.122 325.947 217.087 327.638C213.052 329.329 211.152 333.971 212.844 338.006C214.535 342.041 219.177 343.94 223.212 342.249C227.247 340.558 229.147 335.915 227.455 331.881Z" stroke="url(#paint85_linear_4496_17491)" stroke-width="9.05325" mask="url(#path-1-outside-1_4496_17491)"/>
<path d="M201.062 346.237C203.502 345.214 206.31 346.363 207.333 348.802C208.355 351.243 207.207 354.05 204.767 355.073C202.327 356.095 199.519 354.947 198.496 352.507C197.473 350.067 198.622 347.26 201.062 346.237Z" stroke="url(#paint86_linear_4496_17491)" stroke-width="9.05325" mask="url(#path-1-outside-1_4496_17491)"/>
<path d="M189.397 357.54C188.71 355.903 186.826 355.132 185.188 355.819C183.55 356.504 182.779 358.389 183.466 360.027C184.152 361.664 186.037 362.436 187.674 361.749C189.312 361.063 190.083 359.178 189.397 357.54Z" stroke="url(#paint87_linear_4496_17491)" stroke-width="9.05325" mask="url(#path-1-outside-1_4496_17491)"/>
<path d="M301.984 134.216C299.963 129.406 302.224 123.869 307.033 121.848C311.843 119.827 317.38 122.088 319.401 126.898C321.421 131.707 319.161 137.244 314.352 139.265C309.542 141.286 304.005 139.025 301.984 134.216Z" stroke="url(#paint88_linear_4496_17491)" stroke-width="9.05325" mask="url(#path-1-outside-1_4496_17491)"/>
<path d="M331.846 139.421C327.813 141.116 325.917 145.76 327.612 149.793C329.307 153.826 333.95 155.722 337.984 154.028C342.017 152.333 343.913 147.689 342.218 143.656C340.523 139.622 335.88 137.727 331.846 139.421Z" stroke="url(#paint89_linear_4496_17491)" stroke-width="9.05325" mask="url(#path-1-outside-1_4496_17491)"/>
<path d="M346.224 165.802C345.199 163.363 346.346 160.555 348.785 159.53C351.224 158.505 354.033 159.651 355.058 162.091C356.082 164.529 354.936 167.337 352.497 168.362C350.057 169.387 347.249 168.241 346.224 165.802Z" stroke="url(#paint90_linear_4496_17491)" stroke-width="9.05325" mask="url(#path-1-outside-1_4496_17491)"/>
<path d="M357.538 177.458C355.901 178.146 355.131 180.031 355.819 181.668C356.507 183.305 358.392 184.074 360.029 183.387C361.666 182.699 362.436 180.814 361.748 179.177C361.06 177.54 359.175 176.77 357.538 177.458Z" stroke="url(#paint91_linear_4496_17491)" stroke-width="9.05325" mask="url(#path-1-outside-1_4496_17491)"/>
<path d="M65.016 232.784C67.0369 237.594 64.7765 243.131 59.9668 245.152C55.1574 247.173 49.6202 244.912 47.5993 240.102C45.5786 235.293 47.839 229.756 52.6485 227.735C57.4581 225.714 62.9951 227.975 65.016 232.784Z" stroke="url(#paint92_linear_4496_17491)" stroke-width="9.05325" mask="url(#path-1-outside-1_4496_17491)"/>
<path d="M35.1537 227.579C39.1872 225.884 41.0831 221.24 39.3883 217.207C37.6935 213.174 33.0498 211.278 29.0163 212.972C24.9828 214.667 23.0872 219.311 24.782 223.344C26.4768 227.378 31.1205 229.273 35.1537 227.579Z" stroke="url(#paint93_linear_4496_17491)" stroke-width="9.05325" mask="url(#path-1-outside-1_4496_17491)"/>
<path d="M20.7757 201.198C21.8006 203.637 20.6542 206.445 18.2149 207.47C15.7758 208.495 12.9674 207.349 11.9425 204.909C10.9176 202.471 12.0642 199.663 14.5033 198.638C16.9426 197.613 19.7507 198.759 20.7757 201.198Z" stroke="url(#paint94_linear_4496_17491)" stroke-width="9.05325" mask="url(#path-1-outside-1_4496_17491)"/>
<path d="M9.46202 189.542C11.0994 188.854 11.8688 186.969 11.1808 185.332C10.4928 183.695 8.60806 182.926 6.97069 183.613C5.33355 184.301 4.56394 186.186 5.25191 187.823C5.93987 189.46 7.82488 190.23 9.46202 189.542Z" stroke="url(#paint95_linear_4496_17491)" stroke-width="9.05325" mask="url(#path-1-outside-1_4496_17491)"/>
<path d="M183.223 55.1761C178.006 55.2059 173.753 51.0013 173.723 45.7844C173.693 40.5685 177.897 36.315 183.114 36.2852C188.331 36.2553 192.584 40.4599 192.614 45.6759C192.644 50.8928 188.44 55.1462 183.223 55.1761Z" stroke="url(#paint96_linear_4496_17491)" stroke-width="9.05325" mask="url(#path-1-outside-1_4496_17491)"/>
<path d="M199.443 29.5685C199.469 33.944 203.036 37.4702 207.411 37.4449C211.786 37.4195 215.312 33.8527 215.286 29.478C215.261 25.1024 211.694 21.5762 207.319 21.6016C202.944 21.6269 199.418 25.1938 199.443 29.5685Z" stroke="url(#paint97_linear_4496_17491)" stroke-width="9.05325" mask="url(#path-1-outside-1_4496_17491)"/>
<path d="M229.316 26.3607C226.671 26.3761 224.513 24.2439 224.498 21.598C224.483 18.952 226.615 16.7954 229.261 16.78C231.907 16.7646 234.064 18.8977 234.079 21.5428C234.095 24.1888 231.962 26.3462 229.316 26.3607Z" stroke="url(#paint98_linear_4496_17491)" stroke-width="9.05325" mask="url(#path-1-outside-1_4496_17491)"/>
<path d="M244.411 20.3596C244.421 22.1353 245.869 23.5664 247.645 23.5564C249.421 23.5465 250.852 22.0982 250.842 20.3225C250.831 18.5467 249.384 17.1156 247.608 17.1256C245.832 17.1355 244.401 18.5838 244.411 20.3596Z" stroke="url(#paint99_linear_4496_17491)" stroke-width="9.05325" mask="url(#path-1-outside-1_4496_17491)"/>
<path d="M183.777 311.824C188.994 311.794 193.247 315.999 193.277 321.216C193.307 326.432 189.103 330.685 183.886 330.715C178.669 330.745 174.416 326.54 174.386 321.324C174.356 316.107 178.56 311.854 183.777 311.824Z" stroke="url(#paint100_linear_4496_17491)" stroke-width="9.05325" mask="url(#path-1-outside-1_4496_17491)"/>
<path d="M167.557 337.432C167.531 333.056 163.964 329.53 159.589 329.555C155.215 329.58 151.688 333.147 151.714 337.522C151.739 341.898 155.306 345.424 159.681 345.398C164.056 345.373 167.582 341.806 167.557 337.432Z" stroke="url(#paint101_linear_4496_17491)" stroke-width="9.05325" mask="url(#path-1-outside-1_4496_17491)"/>
<path d="M137.684 340.639C140.329 340.624 142.487 342.756 142.502 345.402C142.517 348.048 140.385 350.205 137.739 350.22C135.093 350.235 132.936 348.102 132.921 345.457C132.905 342.811 135.038 340.654 137.684 340.639Z" stroke="url(#paint102_linear_4496_17491)" stroke-width="9.05325" mask="url(#path-1-outside-1_4496_17491)"/>
<path d="M122.589 346.64C122.579 344.865 121.131 343.434 119.355 343.444C117.579 343.454 116.148 344.902 116.158 346.678C116.169 348.453 117.616 349.884 119.392 349.874C121.168 349.864 122.599 348.416 122.589 346.64Z" stroke="url(#paint103_linear_4496_17491)" stroke-width="9.05325" mask="url(#path-1-outside-1_4496_17491)"/>
<path d="M311.825 183.116C311.791 177.899 315.992 173.643 321.208 173.608C326.425 173.574 330.682 177.775 330.716 182.991C330.751 188.208 326.55 192.465 321.333 192.499C316.116 192.533 311.859 188.332 311.825 183.116Z" stroke="url(#paint104_linear_4496_17491)" stroke-width="9.05325" mask="url(#path-1-outside-1_4496_17491)"/>
<path d="M337.446 199.314C333.071 199.343 329.548 202.913 329.577 207.288C329.606 211.663 333.176 215.186 337.551 215.157C341.926 215.128 345.449 211.558 345.42 207.184C345.391 202.809 341.821 199.285 337.446 199.314Z" stroke="url(#paint105_linear_4496_17491)" stroke-width="9.05325" mask="url(#path-1-outside-1_4496_17491)"/>
<path d="M340.679 229.184C340.662 226.538 342.792 224.379 345.438 224.362C348.084 224.345 350.243 226.475 350.26 229.121C350.278 231.766 348.147 233.926 345.501 233.943C342.856 233.96 340.697 231.83 340.679 229.184Z" stroke="url(#paint106_linear_4496_17491)" stroke-width="9.05325" mask="url(#path-1-outside-1_4496_17491)"/>
<path d="M346.694 244.273C344.918 244.285 343.488 245.734 343.499 247.51C343.511 249.286 344.96 250.716 346.736 250.704C348.512 250.692 349.942 249.243 349.93 247.467C349.919 245.692 348.47 244.262 346.694 244.273Z" stroke="url(#paint107_linear_4496_17491)" stroke-width="9.05325" mask="url(#path-1-outside-1_4496_17491)"/>
<path d="M55.1751 183.884C55.2094 189.101 51.0084 193.358 45.7916 193.392C40.5749 193.426 36.318 189.225 36.2836 184.009C36.2492 178.792 40.4503 174.535 45.667 174.501C50.8838 174.467 55.1407 178.668 55.1751 183.884Z" stroke="url(#paint108_linear_4496_17491)" stroke-width="9.05325" mask="url(#path-1-outside-1_4496_17491)"/>
<path d="M29.5537 167.686C33.9287 167.657 37.4519 164.087 37.423 159.712C37.3943 155.337 33.8242 151.814 29.4492 151.843C25.0744 151.872 21.5512 155.442 21.5801 159.816C21.6088 164.191 25.1789 167.715 29.5537 167.686Z" stroke="url(#paint109_linear_4496_17491)" stroke-width="9.05325" mask="url(#path-1-outside-1_4496_17491)"/>
<path d="M26.3208 137.816C26.3382 140.462 24.2076 142.621 21.5618 142.638C18.916 142.655 16.7571 140.525 16.7397 137.879C16.7223 135.234 18.8529 133.074 21.4987 133.057C24.1445 133.04 26.3034 135.17 26.3208 137.816Z" stroke="url(#paint110_linear_4496_17491)" stroke-width="9.05325" mask="url(#path-1-outside-1_4496_17491)"/>
<path d="M20.3064 122.727C22.0822 122.715 23.5122 121.266 23.5006 119.49C23.4889 117.714 22.0397 116.284 20.2639 116.296C18.4881 116.308 17.0579 117.757 17.0697 119.533C17.0814 121.308 18.5304 122.738 20.3064 122.727Z" stroke="url(#paint111_linear_4496_17491)" stroke-width="9.05325" mask="url(#path-1-outside-1_4496_17491)"/>
<path d="M232.467 64.8852C227.638 62.9123 225.323 57.3978 227.296 52.5681C229.269 47.7393 234.783 45.4244 239.613 47.3974C244.442 49.3703 246.757 54.8848 244.784 59.7145C242.811 64.5433 237.296 66.8582 232.467 64.8852Z" stroke="url(#paint112_linear_4496_17491)" stroke-width="9.05325" mask="url(#path-1-outside-1_4496_17491)"/>
<path d="M257.269 47.4589C255.614 51.5088 257.556 56.1331 261.606 57.7877C265.656 59.4431 270.28 57.5009 271.935 53.451C273.59 49.4011 271.648 44.7767 267.598 43.1222C263.549 41.4668 258.924 43.4089 257.269 47.4589Z" stroke="url(#paint113_linear_4496_17491)" stroke-width="9.05325" mask="url(#path-1-outside-1_4496_17491)"/>
<path d="M286.087 55.954C283.638 54.9535 282.464 52.1565 283.465 49.7077C284.466 47.258 287.262 46.0839 289.711 47.0853C292.161 48.0858 293.335 50.8828 292.334 53.3316C291.333 55.7813 288.537 56.9554 286.087 55.954Z" stroke="url(#paint114_linear_4496_17491)" stroke-width="9.05325" mask="url(#path-1-outside-1_4496_17491)"/>
<path d="M302.329 56.2019C301.658 57.8456 302.446 59.7226 304.09 60.3938C305.734 61.066 307.611 60.2781 308.283 58.6344C308.954 56.9898 308.166 55.1127 306.522 54.4415C304.878 53.7694 303.001 54.5573 302.329 56.2019Z" stroke="url(#paint115_linear_4496_17491)" stroke-width="9.05325" mask="url(#path-1-outside-1_4496_17491)"/>
<path d="M134.533 302.115C139.362 304.088 141.678 309.602 139.704 314.432C137.731 319.261 132.217 321.576 127.387 319.603C122.558 317.63 120.243 312.115 122.216 307.286C124.189 302.457 129.704 300.142 134.533 302.115Z" stroke="url(#paint116_linear_4496_17491)" stroke-width="9.05325" mask="url(#path-1-outside-1_4496_17491)"/>
<path d="M109.731 319.541C111.386 315.491 109.444 310.867 105.394 309.212C101.344 307.557 96.7196 309.499 95.0648 313.549C93.4098 317.599 95.3516 322.223 99.4016 323.878C103.451 325.533 108.076 323.591 109.731 319.541Z" stroke="url(#paint117_linear_4496_17491)" stroke-width="9.05325" mask="url(#path-1-outside-1_4496_17491)"/>
<path d="M80.9127 311.046C83.3617 312.046 84.5359 314.844 83.5352 317.292C82.5345 319.742 79.7376 320.916 77.2886 319.915C74.8393 318.914 73.6651 316.117 74.6658 313.668C75.6666 311.219 78.4634 310.045 80.9127 311.046Z" stroke="url(#paint118_linear_4496_17491)" stroke-width="9.05325" mask="url(#path-1-outside-1_4496_17491)"/>
<path d="M64.6707 310.798C65.3423 309.154 64.5542 307.277 62.9103 306.606C61.2663 305.934 59.389 306.722 58.7173 308.366C58.0457 310.01 58.8338 311.887 60.4777 312.558C62.1217 313.231 63.9987 312.443 64.6707 310.798Z" stroke="url(#paint119_linear_4496_17491)" stroke-width="9.05325" mask="url(#path-1-outside-1_4496_17491)"/>
<path d="M302.157 232.367C304.126 227.536 309.639 225.216 314.47 227.185C319.301 229.155 321.62 234.667 319.651 239.498C317.682 244.329 312.169 246.649 307.338 244.679C302.508 242.71 300.188 237.197 302.157 232.367Z" stroke="url(#paint120_linear_4496_17491)" stroke-width="9.05325" mask="url(#path-1-outside-1_4496_17491)"/>
<path d="M319.605 257.154C315.554 255.502 310.931 257.448 309.279 261.499C307.628 265.551 309.573 270.173 313.624 271.825C317.676 273.477 322.299 271.531 323.95 267.479C325.602 263.428 323.656 258.805 319.605 257.154Z" stroke="url(#paint121_linear_4496_17491)" stroke-width="9.05325" mask="url(#path-1-outside-1_4496_17491)"/>
<path d="M311.133 285.979C312.132 283.529 314.928 282.353 317.378 283.351C319.828 284.35 321.004 287.145 320.006 289.596C319.007 292.046 316.211 293.223 313.761 292.224C311.311 291.225 310.134 288.429 311.133 285.979Z" stroke="url(#paint122_linear_4496_17491)" stroke-width="9.05325" mask="url(#path-1-outside-1_4496_17491)"/>
<path d="M310.9 302.221C309.255 301.55 307.379 302.34 306.708 303.985C306.038 305.629 306.828 307.505 308.472 308.176C310.117 308.846 311.993 308.057 312.664 306.413C313.334 304.768 312.544 302.891 310.9 302.221Z" stroke="url(#paint123_linear_4496_17491)" stroke-width="9.05325" mask="url(#path-1-outside-1_4496_17491)"/>
<path d="M64.843 134.633C62.8739 139.464 57.3613 141.784 52.5304 139.815C47.6995 137.845 45.3796 132.333 47.349 127.502C49.3181 122.672 54.8306 120.351 59.6615 122.321C64.4924 124.29 66.8123 129.803 64.843 134.633Z" stroke="url(#paint124_linear_4496_17491)" stroke-width="9.05325" mask="url(#path-1-outside-1_4496_17491)"/>
<path d="M47.3951 109.846C51.4464 111.498 56.0695 109.552 57.7209 105.501C59.3723 101.449 57.4269 96.8269 53.3755 95.1751C49.3242 93.5233 44.7011 95.4691 43.0497 99.5208C41.3981 103.572 43.3437 108.195 47.3951 109.846Z" stroke="url(#paint125_linear_4496_17491)" stroke-width="9.05325" mask="url(#path-1-outside-1_4496_17491)"/>
<path d="M55.8669 81.0207C54.8682 83.4713 52.0722 84.6473 49.6223 83.6486C47.1721 82.6499 45.9956 79.8547 46.9943 77.4041C47.993 74.9544 50.789 73.7775 53.2389 74.7762C55.6891 75.7749 56.8656 78.571 55.8669 81.0207Z" stroke="url(#paint126_linear_4496_17491)" stroke-width="9.05325" mask="url(#path-1-outside-1_4496_17491)"/>
<path d="M56.1003 64.7794C57.7449 65.4497 59.6213 64.66 60.2918 63.0154C60.9622 61.3708 60.1724 59.4947 58.5278 58.8243C56.8834 58.154 55.0068 58.9429 54.3365 60.5874C53.6662 62.232 54.4559 64.1091 56.1003 64.7794Z" stroke="url(#paint127_linear_4496_17491)" stroke-width="9.05325" mask="url(#path-1-outside-1_4496_17491)"/>
<path d="M674.495 137.558C673.642 128.963 669.984 122.287 663.521 117.528C657.058 112.769 648.286 110.39 637.205 110.39C629.677 110.39 623.32 111.455 618.135 113.586C612.95 115.646 608.972 118.522 606.202 122.216C603.503 125.909 602.154 130.1 602.154 134.788C602.012 138.694 602.828 142.103 604.604 145.015C606.451 147.928 608.972 150.449 612.168 152.58C615.365 154.64 619.058 156.451 623.249 158.013C627.439 159.505 631.914 160.783 636.673 161.849L656.276 166.537C665.794 168.667 674.53 171.508 682.485 175.06C690.44 178.611 697.33 182.979 703.154 188.164C708.978 193.349 713.488 199.458 716.685 206.489C719.952 213.521 721.621 221.582 721.692 230.674C721.621 244.027 718.212 255.604 711.464 265.406C704.788 275.137 695.128 282.701 682.485 288.099C669.913 293.426 654.749 296.09 636.992 296.09C619.378 296.09 604.036 293.391 590.967 287.993C577.969 282.595 567.812 274.604 560.496 264.021C553.252 253.367 549.452 240.191 549.097 224.495H593.737C594.234 231.81 596.329 237.919 600.023 242.819C603.787 247.649 608.795 251.307 615.045 253.793C621.366 256.208 628.505 257.416 636.46 257.416C644.273 257.416 651.056 256.279 656.809 254.006C662.633 251.733 667.143 248.573 670.34 244.524C673.536 240.476 675.134 235.823 675.134 230.567C675.134 225.666 673.678 221.547 670.766 218.209C667.925 214.87 663.734 212.029 658.194 209.685C652.725 207.342 646.013 205.211 638.058 203.293L614.299 197.327C595.903 192.852 581.378 185.856 570.724 176.338C560.07 166.821 554.779 154 554.85 137.877C554.779 124.666 558.295 113.124 565.397 103.252C572.571 93.3788 582.408 85.6724 594.909 80.1323C607.41 74.5922 621.615 71.8222 637.525 71.8222C653.719 71.8222 667.854 74.5922 679.928 80.1323C692.074 85.6724 701.52 93.3788 708.268 103.252C715.015 113.124 718.496 124.56 718.709 137.558H674.495ZM856.812 223.323V129.354H902.198V293H858.623V263.275H856.918C853.225 272.864 847.081 280.57 838.487 286.394C829.964 292.219 819.558 295.131 807.271 295.131C796.332 295.131 786.708 292.645 778.398 287.673C770.088 282.701 763.589 275.634 758.901 266.471C754.284 257.309 751.941 246.335 751.87 233.55V129.354H797.256V225.453C797.327 235.113 799.919 242.748 805.033 248.36C810.147 253.971 817.001 256.776 825.595 256.776C831.065 256.776 836.179 255.533 840.937 253.047C845.696 250.49 849.532 246.726 852.444 241.754C855.427 236.782 856.883 230.638 856.812 223.323ZM938.502 354.367V129.354H983.249V156.841H985.273C987.262 152.438 990.138 147.963 993.903 143.417C997.738 138.801 1002.71 134.965 1008.82 131.911C1015 128.786 1022.67 127.223 1031.83 127.223C1043.76 127.223 1054.77 130.348 1064.86 136.599C1074.94 142.778 1083.01 152.118 1089.04 164.619C1095.08 177.049 1098.1 192.639 1098.1 211.39C1098.1 229.644 1095.15 245.057 1089.26 257.629C1083.43 270.129 1075.48 279.611 1065.39 286.075C1055.38 292.467 1044.15 295.664 1031.72 295.664C1022.92 295.664 1015.42 294.207 1009.24 291.295C1003.14 288.383 998.129 284.725 994.222 280.322C990.316 275.847 987.333 271.337 985.273 266.791H983.888V354.367H938.502ZM982.929 211.177C982.929 220.908 984.279 229.395 986.978 236.64C989.677 243.885 993.583 249.532 998.697 253.58C1003.81 257.558 1010.03 259.546 1017.34 259.546C1024.73 259.546 1030.98 257.522 1036.09 253.474C1041.21 249.354 1045.08 243.672 1047.71 236.427C1050.4 229.111 1051.75 220.695 1051.75 211.177C1051.75 201.73 1050.44 193.42 1047.81 186.247C1045.18 179.073 1041.31 173.462 1036.2 169.413C1031.09 165.365 1024.8 163.34 1017.34 163.34C1009.95 163.34 1003.7 165.294 998.59 169.2C993.548 173.107 989.677 178.647 986.978 185.82C984.279 192.994 982.929 201.446 982.929 211.177ZM1202.93 296.196C1186.1 296.196 1171.61 292.787 1159.47 285.968C1147.39 279.079 1138.09 269.348 1131.55 256.776C1125.02 244.133 1121.75 229.182 1121.75 211.923C1121.75 195.089 1125.02 180.316 1131.55 167.602C1138.09 154.888 1147.29 144.98 1159.15 137.877C1171.08 130.775 1185.07 127.223 1201.12 127.223C1211.92 127.223 1221.97 128.963 1231.27 132.444C1240.65 135.853 1248.82 141.002 1255.78 147.892C1262.81 154.782 1268.28 163.447 1272.19 173.888C1276.09 184.258 1278.05 196.403 1278.05 210.325V222.79H1139.86V194.663H1235.32C1235.32 188.129 1233.9 182.34 1231.06 177.297C1228.22 172.254 1224.28 168.312 1219.24 165.471C1214.26 162.559 1208.47 161.103 1201.87 161.103C1194.98 161.103 1188.87 162.701 1183.54 165.897C1178.29 169.023 1174.17 173.249 1171.19 178.576C1168.2 183.832 1166.68 189.691 1166.6 196.155V222.896C1166.6 230.993 1168.1 237.99 1171.08 243.885C1174.13 249.78 1178.43 254.326 1183.97 257.522C1189.51 260.718 1196.08 262.316 1203.68 262.316C1208.72 262.316 1213.34 261.606 1217.53 260.186C1221.72 258.765 1225.31 256.634 1228.29 253.793C1231.27 250.952 1233.55 247.472 1235.11 243.352L1277.09 246.122C1274.96 256.208 1270.59 265.015 1263.98 272.544C1257.45 280.002 1249 285.826 1238.63 290.017C1228.33 294.136 1216.43 296.196 1202.93 296.196ZM1307.66 293V129.354H1351.67V157.907H1353.37C1356.35 147.75 1361.36 140.079 1368.39 134.894C1375.42 129.638 1383.52 127.01 1392.68 127.01C1394.96 127.01 1397.41 127.152 1400.03 127.436C1402.66 127.72 1404.97 128.111 1406.96 128.608V168.88C1404.83 168.241 1401.88 167.673 1398.12 167.176C1394.35 166.679 1390.91 166.43 1387.78 166.43C1381.11 166.43 1375.14 167.886 1369.88 170.798C1364.7 173.639 1360.58 177.617 1357.52 182.731C1354.54 187.845 1353.05 193.74 1353.05 200.416V293H1307.66ZM1475.81 74.8053V293H1430.43V74.8053H1475.81ZM1617.11 223.323V129.354H1662.5V293H1618.92V263.275H1617.22C1613.52 272.864 1607.38 280.57 1598.79 286.394C1590.26 292.219 1579.86 295.131 1567.57 295.131C1556.63 295.131 1547.01 292.645 1538.7 287.673C1530.39 282.701 1523.89 275.634 1519.2 266.471C1514.58 257.309 1512.24 246.335 1512.17 233.55V129.354H1557.55V225.453C1557.63 235.113 1560.22 242.748 1565.33 248.36C1570.45 253.971 1577.3 256.776 1585.89 256.776C1591.36 256.776 1596.48 255.533 1601.24 253.047C1605.99 250.49 1609.83 246.726 1612.74 241.754C1615.73 236.782 1617.18 230.638 1617.11 223.323ZM1698.8 293V129.354H1742.06V158.226H1743.97C1747.38 148.638 1753.07 141.073 1761.02 135.533C1768.98 129.993 1778.49 127.223 1789.57 127.223C1800.8 127.223 1810.35 130.029 1818.23 135.64C1826.12 141.18 1831.37 148.709 1834 158.226H1835.7C1839.04 148.851 1845.08 141.358 1853.82 135.746C1862.62 130.064 1873.03 127.223 1885.03 127.223C1900.3 127.223 1912.7 132.089 1922.22 141.819C1931.8 151.479 1936.6 165.187 1936.6 182.944V293H1891.32V191.893C1891.32 182.802 1888.9 175.983 1884.07 171.437C1879.24 166.892 1873.21 164.619 1865.96 164.619C1857.72 164.619 1851.3 167.247 1846.68 172.503C1842.06 177.688 1839.75 184.542 1839.75 193.065V293H1795.75V190.934C1795.75 182.908 1793.44 176.516 1788.83 171.757C1784.28 166.998 1778.28 164.619 1770.82 164.619C1765.78 164.619 1761.23 165.897 1757.18 168.454C1753.21 170.94 1750.05 174.456 1747.7 179.002C1745.36 183.476 1744.19 188.732 1744.19 194.77V293H1698.8ZM1972.45 293V129.354H2017.84V293H1972.45ZM1995.25 108.259C1988.5 108.259 1982.71 106.022 1977.88 101.547C1973.12 97.0012 1970.74 91.5677 1970.74 85.2463C1970.74 78.9959 1973.12 73.6334 1977.88 69.1587C1982.71 64.6129 1988.5 62.3401 1995.25 62.3401C2002 62.3401 2007.75 64.6129 2012.51 69.1587C2017.34 73.6334 2019.75 78.9959 2019.75 85.2463C2019.75 91.5677 2017.34 97.0012 2012.51 101.547C2007.75 106.022 2002 108.259 1995.25 108.259ZM2099.58 198.392V293H2054.19V129.354H2097.45V158.226H2099.37C2102.99 148.709 2109.06 141.18 2117.58 135.64C2126.11 130.029 2136.44 127.223 2148.59 127.223C2159.95 127.223 2169.86 129.709 2178.31 134.681C2186.76 139.653 2193.33 146.756 2198.02 155.989C2202.71 165.152 2205.05 176.09 2205.05 188.804V293H2159.67V196.901C2159.74 186.886 2157.18 179.073 2152 173.462C2146.81 167.78 2139.67 164.938 2130.58 164.938C2124.47 164.938 2119.08 166.252 2114.39 168.88C2109.77 171.508 2106.15 175.344 2103.52 180.387C2100.96 185.359 2099.65 191.36 2099.58 198.392ZM2287.49 296.09C2277.05 296.09 2267.74 294.278 2259.58 290.656C2251.41 286.963 2244.94 281.529 2240.19 274.355C2235.5 267.111 2233.15 258.09 2233.15 247.294C2233.15 238.203 2234.82 230.567 2238.16 224.388C2241.5 218.209 2246.05 213.237 2251.8 209.472C2257.55 205.708 2264.09 202.867 2271.4 200.949C2278.79 199.031 2286.53 197.682 2294.63 196.901C2304.15 195.906 2311.82 194.983 2317.64 194.131C2323.46 193.207 2327.69 191.858 2330.32 190.082C2332.95 188.306 2334.26 185.678 2334.26 182.198V181.559C2334.26 174.811 2332.13 169.591 2327.87 165.897C2323.68 162.204 2317.71 160.357 2309.97 160.357C2301.8 160.357 2295.3 162.168 2290.47 165.791C2285.64 169.342 2282.45 173.817 2280.88 179.215L2238.91 175.806C2241.04 165.862 2245.23 157.268 2251.48 150.023C2257.73 142.707 2265.79 137.096 2275.66 133.189C2285.61 129.212 2297.11 127.223 2310.18 127.223C2319.27 127.223 2327.97 128.289 2336.28 130.419C2344.67 132.55 2352.09 135.853 2358.55 140.328C2365.09 144.802 2370.24 150.556 2374 157.587C2377.76 164.548 2379.65 172.893 2379.65 182.624V293H2336.6V270.307H2335.33C2332.7 275.421 2329.18 279.931 2324.78 283.838C2320.37 287.673 2315.08 290.692 2308.9 292.893C2302.72 295.024 2295.59 296.09 2287.49 296.09ZM2300.49 264.767C2307.16 264.767 2313.06 263.453 2318.17 260.825C2323.29 258.126 2327.3 254.503 2330.21 249.958C2333.12 245.412 2334.58 240.263 2334.58 234.509V217.143C2333.16 218.067 2331.21 218.919 2328.72 219.7C2326.31 220.41 2323.57 221.085 2320.52 221.724C2317.46 222.293 2314.41 222.825 2311.35 223.323C2308.3 223.749 2305.53 224.139 2303.04 224.495C2297.72 225.276 2293.06 226.519 2289.09 228.223C2285.11 229.928 2282.02 232.236 2279.82 235.149C2277.62 237.99 2276.52 241.541 2276.52 245.803C2276.52 251.982 2278.75 256.705 2283.23 259.972C2287.77 263.169 2293.53 264.767 2300.49 264.767ZM2460.24 74.8053V293H2414.86V74.8053H2460.24Z" fill="black"/>
<defs>
<linearGradient id="paint0_linear_4496_17491" x1="5" y1="5" x2="361.634" y2="361.613" gradientUnits="userSpaceOnUse">
<stop stop-color="#4F39EF"/>
<stop offset="1" stop-color="#0395FF"/>
</linearGradient>
<linearGradient id="paint1_linear_4496_17491" x1="5" y1="5" x2="361.634" y2="361.613" gradientUnits="userSpaceOnUse">
<stop stop-color="#4F39EF"/>
<stop offset="1" stop-color="#0395FF"/>
</linearGradient>
<linearGradient id="paint2_linear_4496_17491" x1="5" y1="5" x2="361.634" y2="361.613" gradientUnits="userSpaceOnUse">
<stop stop-color="#4F39EF"/>
<stop offset="1" stop-color="#0395FF"/>
</linearGradient>
<linearGradient id="paint3_linear_4496_17491" x1="5" y1="5" x2="361.634" y2="361.613" gradientUnits="userSpaceOnUse">
<stop stop-color="#4F39EF"/>
<stop offset="1" stop-color="#0395FF"/>
</linearGradient>
<linearGradient id="paint4_linear_4496_17491" x1="5" y1="5" x2="361.634" y2="361.613" gradientUnits="userSpaceOnUse">
<stop stop-color="#4F39EF"/>
<stop offset="1" stop-color="#0395FF"/>
</linearGradient>
<linearGradient id="paint5_linear_4496_17491" x1="5" y1="5" x2="361.634" y2="361.613" gradientUnits="userSpaceOnUse">
<stop stop-color="#4F39EF"/>
<stop offset="1" stop-color="#0395FF"/>
</linearGradient>
<linearGradient id="paint6_linear_4496_17491" x1="5" y1="5" x2="361.634" y2="361.613" gradientUnits="userSpaceOnUse">
<stop stop-color="#4F39EF"/>
<stop offset="1" stop-color="#0395FF"/>
</linearGradient>
<linearGradient id="paint7_linear_4496_17491" x1="5" y1="5" x2="361.634" y2="361.613" gradientUnits="userSpaceOnUse">
<stop stop-color="#4F39EF"/>
<stop offset="1" stop-color="#0395FF"/>
</linearGradient>
<linearGradient id="paint8_linear_4496_17491" x1="5" y1="5" x2="361.634" y2="361.613" gradientUnits="userSpaceOnUse">
<stop stop-color="#4F39EF"/>
<stop offset="1" stop-color="#0395FF"/>
</linearGradient>
<linearGradient id="paint9_linear_4496_17491" x1="5" y1="5" x2="361.634" y2="361.613" gradientUnits="userSpaceOnUse">
<stop stop-color="#4F39EF"/>
<stop offset="1" stop-color="#0395FF"/>
</linearGradient>
<linearGradient id="paint10_linear_4496_17491" x1="5" y1="5" x2="361.634" y2="361.613" gradientUnits="userSpaceOnUse">
<stop stop-color="#4F39EF"/>
<stop offset="1" stop-color="#0395FF"/>
</linearGradient>
<linearGradient id="paint11_linear_4496_17491" x1="5" y1="5" x2="361.634" y2="361.613" gradientUnits="userSpaceOnUse">
<stop stop-color="#4F39EF"/>
<stop offset="1" stop-color="#0395FF"/>
</linearGradient>
<linearGradient id="paint12_linear_4496_17491" x1="5" y1="5" x2="361.634" y2="361.613" gradientUnits="userSpaceOnUse">
<stop stop-color="#4F39EF"/>
<stop offset="1" stop-color="#0395FF"/>
</linearGradient>
<linearGradient id="paint13_linear_4496_17491" x1="5" y1="5" x2="361.634" y2="361.613" gradientUnits="userSpaceOnUse">
<stop stop-color="#4F39EF"/>
<stop offset="1" stop-color="#0395FF"/>
</linearGradient>
<linearGradient id="paint14_linear_4496_17491" x1="5" y1="5" x2="361.634" y2="361.613" gradientUnits="userSpaceOnUse">
<stop stop-color="#4F39EF"/>
<stop offset="1" stop-color="#0395FF"/>
</linearGradient>
<linearGradient id="paint15_linear_4496_17491" x1="5" y1="5" x2="361.634" y2="361.613" gradientUnits="userSpaceOnUse">
<stop stop-color="#4F39EF"/>
<stop offset="1" stop-color="#0395FF"/>
</linearGradient>
<linearGradient id="paint16_linear_4496_17491" x1="5" y1="5" x2="361.634" y2="361.613" gradientUnits="userSpaceOnUse">
<stop stop-color="#4F39EF"/>
<stop offset="1" stop-color="#0395FF"/>
</linearGradient>
<linearGradient id="paint17_linear_4496_17491" x1="5" y1="5" x2="361.634" y2="361.613" gradientUnits="userSpaceOnUse">
<stop stop-color="#4F39EF"/>
<stop offset="1" stop-color="#0395FF"/>
</linearGradient>
<linearGradient id="paint18_linear_4496_17491" x1="5" y1="5" x2="361.634" y2="361.613" gradientUnits="userSpaceOnUse">
<stop stop-color="#4F39EF"/>
<stop offset="1" stop-color="#0395FF"/>
</linearGradient>
<linearGradient id="paint19_linear_4496_17491" x1="5" y1="5" x2="361.634" y2="361.613" gradientUnits="userSpaceOnUse">
<stop stop-color="#4F39EF"/>
<stop offset="1" stop-color="#0395FF"/>
</linearGradient>
<linearGradient id="paint20_linear_4496_17491" x1="5" y1="5" x2="361.634" y2="361.613" gradientUnits="userSpaceOnUse">
<stop stop-color="#4F39EF"/>
<stop offset="1" stop-color="#0395FF"/>
</linearGradient>
<linearGradient id="paint21_linear_4496_17491" x1="5" y1="5" x2="361.634" y2="361.613" gradientUnits="userSpaceOnUse">
<stop stop-color="#4F39EF"/>
<stop offset="1" stop-color="#0395FF"/>
</linearGradient>
<linearGradient id="paint22_linear_4496_17491" x1="5" y1="5" x2="361.634" y2="361.613" gradientUnits="userSpaceOnUse">
<stop stop-color="#4F39EF"/>
<stop offset="1" stop-color="#0395FF"/>
</linearGradient>
<linearGradient id="paint23_linear_4496_17491" x1="5" y1="5" x2="361.634" y2="361.613" gradientUnits="userSpaceOnUse">
<stop stop-color="#4F39EF"/>
<stop offset="1" stop-color="#0395FF"/>
</linearGradient>
<linearGradient id="paint24_linear_4496_17491" x1="5" y1="5" x2="361.634" y2="361.613" gradientUnits="userSpaceOnUse">
<stop stop-color="#4F39EF"/>
<stop offset="1" stop-color="#0395FF"/>
</linearGradient>
<linearGradient id="paint25_linear_4496_17491" x1="5" y1="5" x2="361.634" y2="361.613" gradientUnits="userSpaceOnUse">
<stop stop-color="#4F39EF"/>
<stop offset="1" stop-color="#0395FF"/>
</linearGradient>
<linearGradient id="paint26_linear_4496_17491" x1="5" y1="5" x2="361.634" y2="361.613" gradientUnits="userSpaceOnUse">
<stop stop-color="#4F39EF"/>
<stop offset="1" stop-color="#0395FF"/>
</linearGradient>
<linearGradient id="paint27_linear_4496_17491" x1="5" y1="5" x2="361.634" y2="361.613" gradientUnits="userSpaceOnUse">
<stop stop-color="#4F39EF"/>
<stop offset="1" stop-color="#0395FF"/>
</linearGradient>
<linearGradient id="paint28_linear_4496_17491" x1="5" y1="5" x2="361.634" y2="361.613" gradientUnits="userSpaceOnUse">
<stop stop-color="#4F39EF"/>
<stop offset="1" stop-color="#0395FF"/>
</linearGradient>
<linearGradient id="paint29_linear_4496_17491" x1="5" y1="5" x2="361.634" y2="361.613" gradientUnits="userSpaceOnUse">
<stop stop-color="#4F39EF"/>
<stop offset="1" stop-color="#0395FF"/>
</linearGradient>
<linearGradient id="paint30_linear_4496_17491" x1="5" y1="5" x2="361.634" y2="361.613" gradientUnits="userSpaceOnUse">
<stop stop-color="#4F39EF"/>
<stop offset="1" stop-color="#0395FF"/>
</linearGradient>
<linearGradient id="paint31_linear_4496_17491" x1="5" y1="5" x2="361.634" y2="361.613" gradientUnits="userSpaceOnUse">
<stop stop-color="#4F39EF"/>
<stop offset="1" stop-color="#0395FF"/>
</linearGradient>
<linearGradient id="paint32_linear_4496_17491" x1="5" y1="5" x2="361.634" y2="361.613" gradientUnits="userSpaceOnUse">
<stop stop-color="#4F39EF"/>
<stop offset="1" stop-color="#0395FF"/>
</linearGradient>
<linearGradient id="paint33_linear_4496_17491" x1="5" y1="5" x2="361.634" y2="361.613" gradientUnits="userSpaceOnUse">
<stop stop-color="#4F39EF"/>
<stop offset="1" stop-color="#0395FF"/>
</linearGradient>
<linearGradient id="paint34_linear_4496_17491" x1="5" y1="5" x2="361.634" y2="361.613" gradientUnits="userSpaceOnUse">
<stop stop-color="#4F39EF"/>
<stop offset="1" stop-color="#0395FF"/>
</linearGradient>
<linearGradient id="paint35_linear_4496_17491" x1="5" y1="5" x2="361.634" y2="361.613" gradientUnits="userSpaceOnUse">
<stop stop-color="#4F39EF"/>
<stop offset="1" stop-color="#0395FF"/>
</linearGradient>
<linearGradient id="paint36_linear_4496_17491" x1="5" y1="5" x2="361.634" y2="361.613" gradientUnits="userSpaceOnUse">
<stop stop-color="#4F39EF"/>
<stop offset="1" stop-color="#0395FF"/>
</linearGradient>
<linearGradient id="paint37_linear_4496_17491" x1="5" y1="5" x2="361.634" y2="361.613" gradientUnits="userSpaceOnUse">
<stop stop-color="#4F39EF"/>
<stop offset="1" stop-color="#0395FF"/>
</linearGradient>
<linearGradient id="paint38_linear_4496_17491" x1="5" y1="5" x2="361.634" y2="361.613" gradientUnits="userSpaceOnUse">
<stop stop-color="#4F39EF"/>
<stop offset="1" stop-color="#0395FF"/>
</linearGradient>
<linearGradient id="paint39_linear_4496_17491" x1="5" y1="5" x2="361.634" y2="361.613" gradientUnits="userSpaceOnUse">
<stop stop-color="#4F39EF"/>
<stop offset="1" stop-color="#0395FF"/>
</linearGradient>
<linearGradient id="paint40_linear_4496_17491" x1="5" y1="5" x2="361.634" y2="361.613" gradientUnits="userSpaceOnUse">
<stop stop-color="#4F39EF"/>
<stop offset="1" stop-color="#0395FF"/>
</linearGradient>
<linearGradient id="paint41_linear_4496_17491" x1="5" y1="5" x2="361.634" y2="361.613" gradientUnits="userSpaceOnUse">
<stop stop-color="#4F39EF"/>
<stop offset="1" stop-color="#0395FF"/>
</linearGradient>
<linearGradient id="paint42_linear_4496_17491" x1="5" y1="5" x2="361.634" y2="361.613" gradientUnits="userSpaceOnUse">
<stop stop-color="#4F39EF"/>
<stop offset="1" stop-color="#0395FF"/>
</linearGradient>
<linearGradient id="paint43_linear_4496_17491" x1="5" y1="5" x2="361.634" y2="361.613" gradientUnits="userSpaceOnUse">
<stop stop-color="#4F39EF"/>
<stop offset="1" stop-color="#0395FF"/>
</linearGradient>
<linearGradient id="paint44_linear_4496_17491" x1="5" y1="5" x2="361.634" y2="361.613" gradientUnits="userSpaceOnUse">
<stop stop-color="#4F39EF"/>
<stop offset="1" stop-color="#0395FF"/>
</linearGradient>
<linearGradient id="paint45_linear_4496_17491" x1="5" y1="5" x2="361.634" y2="361.613" gradientUnits="userSpaceOnUse">
<stop stop-color="#4F39EF"/>
<stop offset="1" stop-color="#0395FF"/>
</linearGradient>
<linearGradient id="paint46_linear_4496_17491" x1="5" y1="5" x2="361.634" y2="361.613" gradientUnits="userSpaceOnUse">
<stop stop-color="#4F39EF"/>
<stop offset="1" stop-color="#0395FF"/>
</linearGradient>
<linearGradient id="paint47_linear_4496_17491" x1="5" y1="5" x2="361.634" y2="361.613" gradientUnits="userSpaceOnUse">
<stop stop-color="#4F39EF"/>
<stop offset="1" stop-color="#0395FF"/>
</linearGradient>
<linearGradient id="paint48_linear_4496_17491" x1="5" y1="5" x2="361.634" y2="361.613" gradientUnits="userSpaceOnUse">
<stop stop-color="#4F39EF"/>
<stop offset="1" stop-color="#0395FF"/>
</linearGradient>
<linearGradient id="paint49_linear_4496_17491" x1="5" y1="5" x2="361.634" y2="361.613" gradientUnits="userSpaceOnUse">
<stop stop-color="#4F39EF"/>
<stop offset="1" stop-color="#0395FF"/>
</linearGradient>
<linearGradient id="paint50_linear_4496_17491" x1="5" y1="5" x2="361.634" y2="361.613" gradientUnits="userSpaceOnUse">
<stop stop-color="#4F39EF"/>
<stop offset="1" stop-color="#0395FF"/>
</linearGradient>
<linearGradient id="paint51_linear_4496_17491" x1="5" y1="5" x2="361.634" y2="361.613" gradientUnits="userSpaceOnUse">
<stop stop-color="#4F39EF"/>
<stop offset="1" stop-color="#0395FF"/>
</linearGradient>
<linearGradient id="paint52_linear_4496_17491" x1="5" y1="5" x2="361.634" y2="361.613" gradientUnits="userSpaceOnUse">
<stop stop-color="#4F39EF"/>
<stop offset="1" stop-color="#0395FF"/>
</linearGradient>
<linearGradient id="paint53_linear_4496_17491" x1="5" y1="5" x2="361.634" y2="361.613" gradientUnits="userSpaceOnUse">
<stop stop-color="#4F39EF"/>
<stop offset="1" stop-color="#0395FF"/>
</linearGradient>
<linearGradient id="paint54_linear_4496_17491" x1="5" y1="5" x2="361.634" y2="361.613" gradientUnits="userSpaceOnUse">
<stop stop-color="#4F39EF"/>
<stop offset="1" stop-color="#0395FF"/>
</linearGradient>
<linearGradient id="paint55_linear_4496_17491" x1="5" y1="5" x2="361.634" y2="361.613" gradientUnits="userSpaceOnUse">
<stop stop-color="#4F39EF"/>
<stop offset="1" stop-color="#0395FF"/>
</linearGradient>
<linearGradient id="paint56_linear_4496_17491" x1="5" y1="5" x2="361.634" y2="361.613" gradientUnits="userSpaceOnUse">
<stop stop-color="#4F39EF"/>
<stop offset="1" stop-color="#0395FF"/>
</linearGradient>
<linearGradient id="paint57_linear_4496_17491" x1="5" y1="5" x2="361.634" y2="361.613" gradientUnits="userSpaceOnUse">
<stop stop-color="#4F39EF"/>
<stop offset="1" stop-color="#0395FF"/>
</linearGradient>
<linearGradient id="paint58_linear_4496_17491" x1="5" y1="5" x2="361.634" y2="361.613" gradientUnits="userSpaceOnUse">
<stop stop-color="#4F39EF"/>
<stop offset="1" stop-color="#0395FF"/>
</linearGradient>
<linearGradient id="paint59_linear_4496_17491" x1="5" y1="5" x2="361.634" y2="361.613" gradientUnits="userSpaceOnUse">
<stop stop-color="#4F39EF"/>
<stop offset="1" stop-color="#0395FF"/>
</linearGradient>
<linearGradient id="paint60_linear_4496_17491" x1="5" y1="5" x2="361.634" y2="361.613" gradientUnits="userSpaceOnUse">
<stop stop-color="#4F39EF"/>
<stop offset="1" stop-color="#0395FF"/>
</linearGradient>
<linearGradient id="paint61_linear_4496_17491" x1="5" y1="5" x2="361.634" y2="361.613" gradientUnits="userSpaceOnUse">
<stop stop-color="#4F39EF"/>
<stop offset="1" stop-color="#0395FF"/>
</linearGradient>
<linearGradient id="paint62_linear_4496_17491" x1="5" y1="5" x2="361.634" y2="361.613" gradientUnits="userSpaceOnUse">
<stop stop-color="#4F39EF"/>
<stop offset="1" stop-color="#0395FF"/>
</linearGradient>
<linearGradient id="paint63_linear_4496_17491" x1="5" y1="5" x2="361.634" y2="361.613" gradientUnits="userSpaceOnUse">
<stop stop-color="#4F39EF"/>
<stop offset="1" stop-color="#0395FF"/>
</linearGradient>
<linearGradient id="paint64_linear_4496_17491" x1="5" y1="5" x2="361.634" y2="361.613" gradientUnits="userSpaceOnUse">
<stop stop-color="#4F39EF"/>
<stop offset="1" stop-color="#0395FF"/>
</linearGradient>
<linearGradient id="paint65_linear_4496_17491" x1="5" y1="5" x2="361.634" y2="361.613" gradientUnits="userSpaceOnUse">
<stop stop-color="#4F39EF"/>
<stop offset="1" stop-color="#0395FF"/>
</linearGradient>
<linearGradient id="paint66_linear_4496_17491" x1="5" y1="5" x2="361.634" y2="361.613" gradientUnits="userSpaceOnUse">
<stop stop-color="#4F39EF"/>
<stop offset="1" stop-color="#0395FF"/>
</linearGradient>
<linearGradient id="paint67_linear_4496_17491" x1="5" y1="5" x2="361.634" y2="361.613" gradientUnits="userSpaceOnUse">
<stop stop-color="#4F39EF"/>
<stop offset="1" stop-color="#0395FF"/>
</linearGradient>
<linearGradient id="paint68_linear_4496_17491" x1="5" y1="5" x2="361.634" y2="361.613" gradientUnits="userSpaceOnUse">
<stop stop-color="#4F39EF"/>
<stop offset="1" stop-color="#0395FF"/>
</linearGradient>
<linearGradient id="paint69_linear_4496_17491" x1="5" y1="5" x2="361.634" y2="361.613" gradientUnits="userSpaceOnUse">
<stop stop-color="#4F39EF"/>
<stop offset="1" stop-color="#0395FF"/>
</linearGradient>
<linearGradient id="paint70_linear_4496_17491" x1="5" y1="5" x2="361.634" y2="361.613" gradientUnits="userSpaceOnUse">
<stop stop-color="#4F39EF"/>
<stop offset="1" stop-color="#0395FF"/>
</linearGradient>
<linearGradient id="paint71_linear_4496_17491" x1="5" y1="5" x2="361.634" y2="361.613" gradientUnits="userSpaceOnUse">
<stop stop-color="#4F39EF"/>
<stop offset="1" stop-color="#0395FF"/>
</linearGradient>
<linearGradient id="paint72_linear_4496_17491" x1="5" y1="5" x2="361.634" y2="361.613" gradientUnits="userSpaceOnUse">
<stop stop-color="#4F39EF"/>
<stop offset="1" stop-color="#0395FF"/>
</linearGradient>
<linearGradient id="paint73_linear_4496_17491" x1="5" y1="5" x2="361.634" y2="361.613" gradientUnits="userSpaceOnUse">
<stop stop-color="#4F39EF"/>
<stop offset="1" stop-color="#0395FF"/>
</linearGradient>
<linearGradient id="paint74_linear_4496_17491" x1="5" y1="5" x2="361.634" y2="361.613" gradientUnits="userSpaceOnUse">
<stop stop-color="#4F39EF"/>
<stop offset="1" stop-color="#0395FF"/>
</linearGradient>
<linearGradient id="paint75_linear_4496_17491" x1="5" y1="5" x2="361.634" y2="361.613" gradientUnits="userSpaceOnUse">
<stop stop-color="#4F39EF"/>
<stop offset="1" stop-color="#0395FF"/>
</linearGradient>
<linearGradient id="paint76_linear_4496_17491" x1="5" y1="5" x2="361.634" y2="361.613" gradientUnits="userSpaceOnUse">
<stop stop-color="#4F39EF"/>
<stop offset="1" stop-color="#0395FF"/>
</linearGradient>
<linearGradient id="paint77_linear_4496_17491" x1="5" y1="5" x2="361.634" y2="361.613" gradientUnits="userSpaceOnUse">
<stop stop-color="#4F39EF"/>
<stop offset="1" stop-color="#0395FF"/>
</linearGradient>
<linearGradient id="paint78_linear_4496_17491" x1="5" y1="5" x2="361.634" y2="361.613" gradientUnits="userSpaceOnUse">
<stop stop-color="#4F39EF"/>
<stop offset="1" stop-color="#0395FF"/>
</linearGradient>
<linearGradient id="paint79_linear_4496_17491" x1="5" y1="5" x2="361.634" y2="361.613" gradientUnits="userSpaceOnUse">
<stop stop-color="#4F39EF"/>
<stop offset="1" stop-color="#0395FF"/>
</linearGradient>
<linearGradient id="paint80_linear_4496_17491" x1="5" y1="5" x2="361.634" y2="361.613" gradientUnits="userSpaceOnUse">
<stop stop-color="#4F39EF"/>
<stop offset="1" stop-color="#0395FF"/>
</linearGradient>
<linearGradient id="paint81_linear_4496_17491" x1="5" y1="5" x2="361.634" y2="361.613" gradientUnits="userSpaceOnUse">
<stop stop-color="#4F39EF"/>
<stop offset="1" stop-color="#0395FF"/>
</linearGradient>
<linearGradient id="paint82_linear_4496_17491" x1="5" y1="5" x2="361.634" y2="361.613" gradientUnits="userSpaceOnUse">
<stop stop-color="#4F39EF"/>
<stop offset="1" stop-color="#0395FF"/>
</linearGradient>
<linearGradient id="paint83_linear_4496_17491" x1="5" y1="5" x2="361.634" y2="361.613" gradientUnits="userSpaceOnUse">
<stop stop-color="#4F39EF"/>
<stop offset="1" stop-color="#0395FF"/>
</linearGradient>
<linearGradient id="paint84_linear_4496_17491" x1="5" y1="5" x2="361.634" y2="361.613" gradientUnits="userSpaceOnUse">
<stop stop-color="#4F39EF"/>
<stop offset="1" stop-color="#0395FF"/>
</linearGradient>
<linearGradient id="paint85_linear_4496_17491" x1="5" y1="5" x2="361.634" y2="361.613" gradientUnits="userSpaceOnUse">
<stop stop-color="#4F39EF"/>
<stop offset="1" stop-color="#0395FF"/>
</linearGradient>
<linearGradient id="paint86_linear_4496_17491" x1="5" y1="5" x2="361.634" y2="361.613" gradientUnits="userSpaceOnUse">
<stop stop-color="#4F39EF"/>
<stop offset="1" stop-color="#0395FF"/>
</linearGradient>
<linearGradient id="paint87_linear_4496_17491" x1="5" y1="5" x2="361.634" y2="361.613" gradientUnits="userSpaceOnUse">
<stop stop-color="#4F39EF"/>
<stop offset="1" stop-color="#0395FF"/>
</linearGradient>
<linearGradient id="paint88_linear_4496_17491" x1="5" y1="5" x2="361.634" y2="361.613" gradientUnits="userSpaceOnUse">
<stop stop-color="#4F39EF"/>
<stop offset="1" stop-color="#0395FF"/>
</linearGradient>
<linearGradient id="paint89_linear_4496_17491" x1="5" y1="5" x2="361.634" y2="361.613" gradientUnits="userSpaceOnUse">
<stop stop-color="#4F39EF"/>
<stop offset="1" stop-color="#0395FF"/>
</linearGradient>
<linearGradient id="paint90_linear_4496_17491" x1="5" y1="5" x2="361.634" y2="361.613" gradientUnits="userSpaceOnUse">
<stop stop-color="#4F39EF"/>
<stop offset="1" stop-color="#0395FF"/>
</linearGradient>
<linearGradient id="paint91_linear_4496_17491" x1="5" y1="5" x2="361.634" y2="361.613" gradientUnits="userSpaceOnUse">
<stop stop-color="#4F39EF"/>
<stop offset="1" stop-color="#0395FF"/>
</linearGradient>
<linearGradient id="paint92_linear_4496_17491" x1="5" y1="5" x2="361.634" y2="361.613" gradientUnits="userSpaceOnUse">
<stop stop-color="#4F39EF"/>
<stop offset="1" stop-color="#0395FF"/>
</linearGradient>
<linearGradient id="paint93_linear_4496_17491" x1="5" y1="5" x2="361.634" y2="361.613" gradientUnits="userSpaceOnUse">
<stop stop-color="#4F39EF"/>
<stop offset="1" stop-color="#0395FF"/>
</linearGradient>
<linearGradient id="paint94_linear_4496_17491" x1="5" y1="5" x2="361.634" y2="361.613" gradientUnits="userSpaceOnUse">
<stop stop-color="#4F39EF"/>
<stop offset="1" stop-color="#0395FF"/>
</linearGradient>
<linearGradient id="paint95_linear_4496_17491" x1="5" y1="5" x2="361.634" y2="361.613" gradientUnits="userSpaceOnUse">
<stop stop-color="#4F39EF"/>
<stop offset="1" stop-color="#0395FF"/>
</linearGradient>
<linearGradient id="paint96_linear_4496_17491" x1="5" y1="5" x2="361.634" y2="361.613" gradientUnits="userSpaceOnUse">
<stop stop-color="#4F39EF"/>
<stop offset="1" stop-color="#0395FF"/>
</linearGradient>
<linearGradient id="paint97_linear_4496_17491" x1="5" y1="5" x2="361.634" y2="361.613" gradientUnits="userSpaceOnUse">
<stop stop-color="#4F39EF"/>
<stop offset="1" stop-color="#0395FF"/>
</linearGradient>
<linearGradient id="paint98_linear_4496_17491" x1="5" y1="5" x2="361.634" y2="361.613" gradientUnits="userSpaceOnUse">
<stop stop-color="#4F39EF"/>
<stop offset="1" stop-color="#0395FF"/>
</linearGradient>
<linearGradient id="paint99_linear_4496_17491" x1="5" y1="5" x2="361.634" y2="361.613" gradientUnits="userSpaceOnUse">
<stop stop-color="#4F39EF"/>
<stop offset="1" stop-color="#0395FF"/>
</linearGradient>
<linearGradient id="paint100_linear_4496_17491" x1="5" y1="5" x2="361.634" y2="361.613" gradientUnits="userSpaceOnUse">
<stop stop-color="#4F39EF"/>
<stop offset="1" stop-color="#0395FF"/>
</linearGradient>
<linearGradient id="paint101_linear_4496_17491" x1="5" y1="5" x2="361.634" y2="361.613" gradientUnits="userSpaceOnUse">
<stop stop-color="#4F39EF"/>
<stop offset="1" stop-color="#0395FF"/>
</linearGradient>
<linearGradient id="paint102_linear_4496_17491" x1="5" y1="5" x2="361.634" y2="361.613" gradientUnits="userSpaceOnUse">
<stop stop-color="#4F39EF"/>
<stop offset="1" stop-color="#0395FF"/>
</linearGradient>
<linearGradient id="paint103_linear_4496_17491" x1="5" y1="5" x2="361.634" y2="361.613" gradientUnits="userSpaceOnUse">
<stop stop-color="#4F39EF"/>
<stop offset="1" stop-color="#0395FF"/>
</linearGradient>
<linearGradient id="paint104_linear_4496_17491" x1="5" y1="5" x2="361.634" y2="361.613" gradientUnits="userSpaceOnUse">
<stop stop-color="#4F39EF"/>
<stop offset="1" stop-color="#0395FF"/>
</linearGradient>
<linearGradient id="paint105_linear_4496_17491" x1="5" y1="5" x2="361.634" y2="361.613" gradientUnits="userSpaceOnUse">
<stop stop-color="#4F39EF"/>
<stop offset="1" stop-color="#0395FF"/>
</linearGradient>
<linearGradient id="paint106_linear_4496_17491" x1="5" y1="5" x2="361.634" y2="361.613" gradientUnits="userSpaceOnUse">
<stop stop-color="#4F39EF"/>
<stop offset="1" stop-color="#0395FF"/>
</linearGradient>
<linearGradient id="paint107_linear_4496_17491" x1="5" y1="5" x2="361.634" y2="361.613" gradientUnits="userSpaceOnUse">
<stop stop-color="#4F39EF"/>
<stop offset="1" stop-color="#0395FF"/>
</linearGradient>
<linearGradient id="paint108_linear_4496_17491" x1="5" y1="5" x2="361.634" y2="361.613" gradientUnits="userSpaceOnUse">
<stop stop-color="#4F39EF"/>
<stop offset="1" stop-color="#0395FF"/>
</linearGradient>
<linearGradient id="paint109_linear_4496_17491" x1="5" y1="5" x2="361.634" y2="361.613" gradientUnits="userSpaceOnUse">
<stop stop-color="#4F39EF"/>
<stop offset="1" stop-color="#0395FF"/>
</linearGradient>
<linearGradient id="paint110_linear_4496_17491" x1="5" y1="5" x2="361.634" y2="361.613" gradientUnits="userSpaceOnUse">
<stop stop-color="#4F39EF"/>
<stop offset="1" stop-color="#0395FF"/>
</linearGradient>
<linearGradient id="paint111_linear_4496_17491" x1="5" y1="5" x2="361.634" y2="361.613" gradientUnits="userSpaceOnUse">
<stop stop-color="#4F39EF"/>
<stop offset="1" stop-color="#0395FF"/>
</linearGradient>
<linearGradient id="paint112_linear_4496_17491" x1="5" y1="5" x2="361.634" y2="361.613" gradientUnits="userSpaceOnUse">
<stop stop-color="#4F39EF"/>
<stop offset="1" stop-color="#0395FF"/>
</linearGradient>
<linearGradient id="paint113_linear_4496_17491" x1="5" y1="5" x2="361.634" y2="361.613" gradientUnits="userSpaceOnUse">
<stop stop-color="#4F39EF"/>
<stop offset="1" stop-color="#0395FF"/>
</linearGradient>
<linearGradient id="paint114_linear_4496_17491" x1="5" y1="5" x2="361.634" y2="361.613" gradientUnits="userSpaceOnUse">
<stop stop-color="#4F39EF"/>
<stop offset="1" stop-color="#0395FF"/>
</linearGradient>
<linearGradient id="paint115_linear_4496_17491" x1="5" y1="5" x2="361.634" y2="361.613" gradientUnits="userSpaceOnUse">
<stop stop-color="#4F39EF"/>
<stop offset="1" stop-color="#0395FF"/>
</linearGradient>
<linearGradient id="paint116_linear_4496_17491" x1="5" y1="5" x2="361.634" y2="361.613" gradientUnits="userSpaceOnUse">
<stop stop-color="#4F39EF"/>
<stop offset="1" stop-color="#0395FF"/>
</linearGradient>
<linearGradient id="paint117_linear_4496_17491" x1="5" y1="5" x2="361.634" y2="361.613" gradientUnits="userSpaceOnUse">
<stop stop-color="#4F39EF"/>
<stop offset="1" stop-color="#0395FF"/>
</linearGradient>
<linearGradient id="paint118_linear_4496_17491" x1="5" y1="5" x2="361.634" y2="361.613" gradientUnits="userSpaceOnUse">
<stop stop-color="#4F39EF"/>
<stop offset="1" stop-color="#0395FF"/>
</linearGradient>
<linearGradient id="paint119_linear_4496_17491" x1="5" y1="5" x2="361.634" y2="361.613" gradientUnits="userSpaceOnUse">
<stop stop-color="#4F39EF"/>
<stop offset="1" stop-color="#0395FF"/>
</linearGradient>
<linearGradient id="paint120_linear_4496_17491" x1="5" y1="5" x2="361.634" y2="361.613" gradientUnits="userSpaceOnUse">
<stop stop-color="#4F39EF"/>
<stop offset="1" stop-color="#0395FF"/>
</linearGradient>
<linearGradient id="paint121_linear_4496_17491" x1="5" y1="5" x2="361.634" y2="361.613" gradientUnits="userSpaceOnUse">
<stop stop-color="#4F39EF"/>
<stop offset="1" stop-color="#0395FF"/>
</linearGradient>
<linearGradient id="paint122_linear_4496_17491" x1="5" y1="5" x2="361.634" y2="361.613" gradientUnits="userSpaceOnUse">
<stop stop-color="#4F39EF"/>
<stop offset="1" stop-color="#0395FF"/>
</linearGradient>
<linearGradient id="paint123_linear_4496_17491" x1="5" y1="5" x2="361.634" y2="361.613" gradientUnits="userSpaceOnUse">
<stop stop-color="#4F39EF"/>
<stop offset="1" stop-color="#0395FF"/>
</linearGradient>
<linearGradient id="paint124_linear_4496_17491" x1="5" y1="5" x2="361.634" y2="361.613" gradientUnits="userSpaceOnUse">
<stop stop-color="#4F39EF"/>
<stop offset="1" stop-color="#0395FF"/>
</linearGradient>
<linearGradient id="paint125_linear_4496_17491" x1="5" y1="5" x2="361.634" y2="361.613" gradientUnits="userSpaceOnUse">
<stop stop-color="#4F39EF"/>
<stop offset="1" stop-color="#0395FF"/>
</linearGradient>
<linearGradient id="paint126_linear_4496_17491" x1="5" y1="5" x2="361.634" y2="361.613" gradientUnits="userSpaceOnUse">
<stop stop-color="#4F39EF"/>
<stop offset="1" stop-color="#0395FF"/>
</linearGradient>
<linearGradient id="paint127_linear_4496_17491" x1="5" y1="5" x2="361.634" y2="361.613" gradientUnits="userSpaceOnUse">
<stop stop-color="#4F39EF"/>
<stop offset="1" stop-color="#0395FF"/>
</linearGradient>
</defs>
</svg>
