<svg width="537" height="537" viewBox="0 0 537 537" fill="none" xmlns="http://www.w3.org/2000/svg">
<rect width="537" height="537" fill="#17114F"/>
<mask id="path-2-outside-1_4585_17491" maskUnits="userSpaceOnUse" x="91" y="91" width="355" height="355" fill="black">
<rect fill="white" x="91" y="91" width="355" height="355"/>
<path d="M262.802 100.31C263.465 101.892 265.286 102.637 266.869 101.974C268.451 101.311 269.197 99.49 268.533 97.9069C267.87 96.3245 266.049 95.5789 264.466 96.2424C262.883 96.9059 262.138 98.7269 262.802 100.31Z"/>
<path d="M251.528 111.233C249.17 112.222 246.457 111.112 245.469 108.754C244.48 106.395 245.59 103.683 247.948 102.694C250.306 101.706 253.019 102.816 254.008 105.174C254.996 107.532 253.886 110.244 251.528 111.233Z"/>
<path d="M199.013 115.229C200.23 116.438 202.198 116.432 203.407 115.214C204.617 113.997 204.61 112.03 203.392 110.82C202.175 109.611 200.207 109.617 198.998 110.835C197.788 112.052 197.795 114.019 199.013 115.229Z"/>
<path d="M192.764 129.629C190.962 131.443 188.031 131.453 186.217 129.651C184.403 127.849 184.393 124.918 186.195 123.104C187.997 121.29 190.928 121.28 192.742 123.082C194.556 124.884 194.566 127.815 192.764 129.629Z"/>
<path d="M174.488 152.19C177.488 155.17 182.335 155.154 185.314 152.154C188.294 149.154 188.278 144.308 185.278 141.327C182.279 138.348 177.432 138.364 174.452 141.364C171.472 144.364 171.488 149.21 174.488 152.19Z"/>
<path d="M167.924 180.831C171.501 184.384 177.28 184.364 180.833 180.788C184.386 177.211 184.367 171.431 180.79 167.879C177.214 164.326 171.434 164.345 167.881 167.922C164.328 171.498 164.347 177.278 167.924 180.831Z"/>
<path d="M356.167 356.212C359.72 352.636 365.499 352.616 369.076 356.169C372.653 359.722 372.672 365.502 369.119 369.078C365.566 372.655 359.786 372.674 356.21 369.121C352.633 365.569 352.614 359.789 356.167 356.212Z"/>
<path d="M362.512 384.81C359.512 381.83 354.665 381.846 351.686 384.846C348.706 387.846 348.722 392.692 351.722 395.673C354.721 398.652 359.568 398.636 362.548 395.636C365.528 392.636 365.512 387.79 362.512 384.81Z"/>
<path d="M344.236 407.371C346.038 405.557 348.969 405.547 350.783 407.349C352.597 409.151 352.607 412.082 350.805 413.896C349.003 415.71 346.072 415.72 344.258 413.918C342.444 412.116 342.434 409.185 344.236 407.371Z"/>
<path d="M337.987 421.771C336.77 420.562 334.802 420.568 333.593 421.786C332.383 423.003 332.39 424.97 333.608 426.18C334.825 427.389 336.793 427.383 338.002 426.165C339.212 424.948 339.205 422.981 337.987 421.771Z"/>
<path d="M356.14 180.762C352.56 177.212 352.536 171.432 356.086 167.852C359.636 164.273 365.416 164.249 368.996 167.799C372.575 171.348 372.599 177.129 369.049 180.708C365.499 184.287 359.72 184.312 356.14 180.762Z"/>
<path d="M384.733 174.392C381.756 177.394 381.776 182.242 384.778 185.218C387.78 188.196 392.627 188.176 395.604 185.174C398.581 182.172 398.561 177.324 395.559 174.348C392.557 171.37 387.71 171.39 384.733 174.392Z"/>
<path d="M407.309 192.649C405.494 190.849 405.482 187.918 407.282 186.102C409.082 184.287 412.014 184.274 413.829 186.075C415.645 187.875 415.657 190.806 413.857 192.622C412.056 194.438 409.125 194.45 407.309 192.649Z"/>
<path d="M421.715 198.886C420.507 200.104 420.515 202.071 421.734 203.28C422.952 204.488 424.92 204.481 426.128 203.262C427.336 202.043 427.328 200.075 426.11 198.867C424.891 197.659 422.924 197.667 421.715 198.886Z"/>
<path d="M180.86 356.238C184.44 359.788 184.464 365.568 180.914 369.148C177.364 372.727 171.584 372.751 168.004 369.201C164.425 365.652 164.401 359.871 167.951 356.292C171.501 352.713 177.28 352.688 180.86 356.238Z"/>
<path d="M152.267 362.608C155.244 359.606 155.224 354.758 152.222 351.782C149.22 348.804 144.373 348.824 141.396 351.826C138.419 354.828 138.439 359.676 141.441 362.652C144.443 365.63 149.29 365.61 152.267 362.608Z"/>
<path d="M129.691 344.351C131.506 346.151 131.518 349.082 129.718 350.898C127.918 352.713 124.986 352.726 123.171 350.925C121.355 349.125 121.343 346.194 123.143 344.378C124.944 342.562 127.875 342.55 129.691 344.351Z"/>
<path d="M115.285 338.114C116.493 336.896 116.485 334.929 115.266 333.72C114.048 332.512 112.08 332.519 110.872 333.738C109.664 334.957 109.672 336.925 110.89 338.133C112.109 339.341 114.076 339.333 115.285 338.114Z"/>
<path d="M220.967 153.961C216.318 155.909 210.968 153.72 209.019 149.071C207.07 144.421 209.259 139.072 213.909 137.123C218.558 135.174 223.907 137.363 225.856 142.013C227.806 146.662 225.616 152.011 220.967 153.961Z"/>
<path d="M226.022 125.107C227.657 129.006 232.143 130.841 236.042 129.207C239.941 127.573 241.777 123.086 240.142 119.188C238.508 115.289 234.022 113.453 230.123 115.087C226.223 116.721 224.388 121.208 226.022 125.107Z"/>
<path d="M316.033 383.039C320.682 381.091 326.032 383.28 327.981 387.929C329.93 392.579 327.741 397.928 323.091 399.877C318.442 401.826 313.093 399.637 311.144 394.987C309.194 390.338 311.384 384.989 316.033 383.039Z"/>
<path d="M310.978 411.893C309.343 407.994 304.857 406.159 300.958 407.793C297.059 409.427 295.223 413.914 296.858 417.812C298.492 421.711 302.978 423.547 306.877 421.913C310.777 420.279 312.612 415.792 310.978 411.893Z"/>
<path d="M285.472 425.767C287.83 424.778 290.543 425.888 291.531 428.246C292.52 430.605 291.41 433.317 289.052 434.306C286.694 435.294 283.981 434.184 282.992 431.826C282.004 429.468 283.114 426.756 285.472 425.767Z"/>
<path d="M274.198 436.69C273.535 435.108 271.714 434.363 270.131 435.026C268.549 435.689 267.803 437.51 268.467 439.093C269.13 440.675 270.951 441.421 272.534 440.758C274.117 440.094 274.862 438.273 274.198 436.69Z"/>
<path d="M383.001 220.873C381.048 216.225 383.233 210.874 387.881 208.921C392.529 206.968 397.88 209.152 399.833 213.8C401.785 218.448 399.601 223.799 394.953 225.752C390.305 227.705 384.954 225.52 383.001 220.873Z"/>
<path d="M411.86 225.903C407.962 227.541 406.13 232.028 407.768 235.926C409.405 239.824 413.893 241.656 417.791 240.019C421.689 238.38 423.521 233.893 421.883 229.995C420.245 226.097 415.758 224.265 411.86 225.903Z"/>
<path d="M425.755 251.397C424.764 249.039 425.872 246.326 428.229 245.335C430.586 244.345 433.3 245.453 434.291 247.81C435.281 250.167 434.173 252.881 431.816 253.871C429.459 254.862 426.745 253.754 425.755 251.397Z"/>
<path d="M436.688 262.661C435.106 263.326 434.362 265.147 435.027 266.73C435.692 268.311 437.513 269.055 439.096 268.391C440.678 267.725 441.421 265.905 440.757 264.322C440.092 262.74 438.27 261.996 436.688 262.661Z"/>
<path d="M153.999 316.127C155.952 320.775 153.767 326.126 149.119 328.079C144.471 330.032 139.12 327.848 137.167 323.2C135.215 318.552 137.399 313.201 142.047 311.248C146.695 309.295 152.046 311.48 153.999 316.127Z"/>
<path d="M125.14 311.097C129.038 309.459 130.87 304.972 129.232 301.074C127.595 297.176 123.107 295.344 119.209 296.981C115.311 298.62 113.479 303.107 115.117 307.005C116.755 310.903 121.242 312.735 125.14 311.097Z"/>
<path d="M111.245 285.603C112.236 287.961 111.128 290.674 108.771 291.665C106.414 292.655 103.7 291.547 102.709 289.19C101.719 286.833 102.827 284.119 105.184 283.129C107.541 282.138 110.255 283.246 111.245 285.603Z"/>
<path d="M100.312 274.339C101.894 273.674 102.638 271.853 101.973 270.27C101.308 268.689 99.4868 267.945 97.9044 268.609C96.3223 269.275 95.5786 271.095 96.2434 272.678C96.9083 274.26 98.7299 275.004 100.312 274.339Z"/>
<path d="M268.232 144.489C263.191 144.518 259.081 140.455 259.051 135.414C259.022 130.373 263.086 126.262 268.127 126.234C273.169 126.205 277.279 130.268 277.308 135.309C277.337 140.35 273.274 144.461 268.232 144.489Z"/>
<path d="M283.907 119.743C283.932 123.971 287.379 127.379 291.607 127.354C295.835 127.33 299.242 123.883 299.218 119.655C299.194 115.427 295.747 112.019 291.519 112.044C287.291 112.068 283.883 115.515 283.907 119.743Z"/>
<path d="M312.776 116.643C310.219 116.658 308.135 114.597 308.12 112.04C308.105 109.483 310.166 107.399 312.723 107.384C315.28 107.369 317.364 109.431 317.379 111.987C317.394 114.544 315.333 116.629 312.776 116.643Z"/>
<path d="M327.363 110.843C327.373 112.559 328.773 113.942 330.489 113.933C332.205 113.923 333.588 112.523 333.578 110.807C333.568 109.091 332.169 107.708 330.453 107.718C328.737 107.728 327.353 109.127 327.363 110.843Z"/>
<path d="M268.768 392.511C273.809 392.482 277.919 396.545 277.949 401.586C277.978 406.627 273.914 410.738 268.873 410.766C263.831 410.795 259.721 406.732 259.692 401.691C259.663 396.65 263.726 392.539 268.768 392.511Z"/>
<path d="M253.093 417.257C253.068 413.029 249.621 409.621 245.393 409.646C241.165 409.67 237.758 413.117 237.782 417.345C237.806 421.573 241.253 424.981 245.481 424.956C249.709 424.932 253.117 421.485 253.093 417.257Z"/>
<path d="M224.224 420.357C226.781 420.342 228.865 422.403 228.88 424.96C228.895 427.517 226.834 429.601 224.277 429.616C221.72 429.631 219.636 427.569 219.621 425.013C219.606 422.456 221.667 420.371 224.224 420.357Z"/>
<path d="M209.637 426.157C209.627 424.441 208.227 423.058 206.511 423.067C204.795 423.077 203.412 424.477 203.422 426.193C203.432 427.909 204.831 429.292 206.547 429.282C208.263 429.272 209.647 427.873 209.637 426.157Z"/>
<path d="M392.512 268.128C392.478 263.087 396.538 258.974 401.579 258.941C406.621 258.907 410.735 262.967 410.768 268.008C410.801 273.049 406.741 277.163 401.7 277.197C396.659 277.23 392.545 273.17 392.512 268.128Z"/>
<path d="M417.272 283.783C413.044 283.811 409.639 287.26 409.667 291.488C409.695 295.716 413.145 299.121 417.373 299.093C421.6 299.065 425.005 295.615 424.977 291.387C424.949 287.16 421.499 283.755 417.272 283.783Z"/>
<path d="M420.396 312.648C420.379 310.092 422.438 308.005 424.995 307.988C427.552 307.972 429.638 310.031 429.655 312.588C429.672 315.144 427.613 317.231 425.056 317.247C422.499 317.264 420.413 315.205 420.396 312.648Z"/>
<path d="M426.208 327.231C424.492 327.242 423.11 328.642 423.121 330.358C423.133 332.074 424.533 333.457 426.249 333.445C427.965 333.434 429.347 332.033 429.336 330.317C429.325 328.601 427.924 327.219 426.208 327.231Z"/>
<path d="M144.489 268.872C144.522 273.913 140.462 278.026 135.42 278.059C130.379 278.093 126.265 274.033 126.232 268.992C126.199 263.951 130.259 259.837 135.3 259.803C140.341 259.77 144.455 263.83 144.489 268.872Z"/>
<path d="M119.728 253.217C123.956 253.189 127.361 249.74 127.333 245.512C127.305 241.284 123.855 237.879 119.627 237.907C115.4 237.935 111.995 241.385 112.023 245.613C112.051 249.84 115.501 253.245 119.728 253.217Z"/>
<path d="M116.604 224.352C116.621 226.908 114.562 228.995 112.005 229.012C109.448 229.028 107.362 226.969 107.345 224.412C107.328 221.856 109.387 219.769 111.944 219.753C114.501 219.736 116.587 221.795 116.604 224.352Z"/>
<path d="M110.792 209.769C112.508 209.758 113.89 208.358 113.879 206.642C113.867 204.926 112.467 203.543 110.751 203.555C109.035 203.566 107.653 204.967 107.664 206.683C107.675 208.399 109.076 209.781 110.792 209.769Z"/>
<path d="M315.821 153.872C311.154 151.966 308.917 146.637 310.824 141.969C312.73 137.303 318.06 135.066 322.727 136.972C327.393 138.879 329.631 144.208 327.724 148.875C325.817 153.542 320.488 155.779 315.821 153.872Z"/>
<path d="M339.789 137.032C338.19 140.945 340.066 145.414 343.98 147.013C347.894 148.613 352.363 146.736 353.963 142.822C355.562 138.909 353.685 134.44 349.772 132.841C345.858 131.241 341.389 133.118 339.789 137.032Z"/>
<path d="M367.639 145.241C365.272 144.274 364.138 141.571 365.105 139.205C366.072 136.838 368.775 135.703 371.141 136.671C373.508 137.637 374.643 140.341 373.676 142.707C372.709 145.074 370.006 146.209 367.639 145.241Z"/>
<path d="M383.335 145.481C382.686 147.069 383.448 148.883 385.036 149.532C386.625 150.181 388.439 149.42 389.088 147.832C389.737 146.242 388.976 144.428 387.387 143.78C385.798 143.13 383.984 143.892 383.335 145.481Z"/>
<path d="M221.179 383.128C225.846 385.034 228.083 390.363 226.176 395.031C224.27 399.697 218.94 401.934 214.273 400.028C209.607 398.121 207.369 392.792 209.276 388.125C211.183 383.458 216.512 381.221 221.179 383.128Z"/>
<path d="M197.211 399.968C198.81 396.055 196.934 391.586 193.02 389.987C189.106 388.387 184.637 390.264 183.037 394.178C181.438 398.091 183.315 402.56 187.228 404.159C191.142 405.759 195.611 403.882 197.211 399.968Z"/>
<path d="M169.361 391.759C171.728 392.726 172.862 395.429 171.895 397.795C170.928 400.162 168.225 401.297 165.859 400.329C163.492 399.363 162.357 396.659 163.324 394.293C164.291 391.926 166.994 390.791 169.361 391.759Z"/>
<path d="M153.665 391.519C154.314 389.931 153.552 388.117 151.964 387.468C150.375 386.819 148.561 387.58 147.912 389.168C147.263 390.758 148.024 392.572 149.613 393.22C151.202 393.87 153.016 393.108 153.665 391.519Z"/>
<path d="M383.169 315.724C385.071 311.056 390.399 308.814 395.067 310.717C399.736 312.62 401.978 317.947 400.075 322.616C398.172 327.284 392.844 329.526 388.176 327.623C383.507 325.72 381.265 320.393 383.169 315.724Z"/>
<path d="M400.03 339.678C396.115 338.082 391.647 339.962 390.051 343.877C388.455 347.793 390.335 352.26 394.251 353.856C398.166 355.452 402.633 353.572 404.229 349.656C405.825 345.742 403.945 341.274 400.03 339.678Z"/>
<path d="M391.843 367.535C392.808 365.166 395.51 364.03 397.878 364.995C400.245 365.96 401.382 368.661 400.417 371.03C399.452 373.397 396.75 374.534 394.383 373.569C392.015 372.604 390.878 369.902 391.843 367.535Z"/>
<path d="M391.617 383.23C390.028 382.582 388.215 383.345 387.567 384.935C386.919 386.524 387.682 388.337 389.271 388.985C390.861 389.633 392.674 388.87 393.322 387.281C393.97 385.692 393.207 383.878 391.617 383.23Z"/>
<path d="M153.831 221.276C151.929 225.944 146.601 228.186 141.933 226.283C137.264 224.38 135.022 219.053 136.925 214.384C138.828 209.716 144.156 207.474 148.824 209.377C153.493 211.28 155.735 216.607 153.831 221.276Z"/>
<path d="M136.97 197.322C140.885 198.918 145.353 197.038 146.949 193.123C148.545 189.207 146.665 184.74 142.749 183.144C138.834 181.548 134.367 183.428 132.771 187.344C131.175 191.258 133.055 195.726 136.97 197.322Z"/>
<path d="M145.157 169.465C144.192 171.834 141.49 172.97 139.122 172.005C136.755 171.04 135.618 168.339 136.583 165.97C137.548 163.603 140.25 162.466 142.617 163.431C144.985 164.396 146.122 167.098 145.157 169.465Z"/>
<path d="M145.383 153.77C146.972 154.418 148.785 153.655 149.433 152.065C150.081 150.476 149.318 148.663 147.729 148.015C146.139 147.367 144.326 148.13 143.678 149.719C143.03 151.308 143.794 153.122 145.383 153.77Z"/>
</mask>
<path d="M262.802 100.31C263.465 101.892 265.286 102.637 266.869 101.974C268.451 101.311 269.197 99.49 268.533 97.9069C267.87 96.3245 266.049 95.5789 264.466 96.2424C262.883 96.9059 262.138 98.7269 262.802 100.31Z" fill="white"/>
<path d="M251.528 111.233C249.17 112.222 246.457 111.112 245.469 108.754C244.48 106.395 245.59 103.683 247.948 102.694C250.306 101.706 253.019 102.816 254.008 105.174C254.996 107.532 253.886 110.244 251.528 111.233Z" fill="white"/>
<path d="M199.013 115.229C200.23 116.438 202.198 116.432 203.407 115.214C204.617 113.997 204.61 112.03 203.392 110.82C202.175 109.611 200.207 109.617 198.998 110.835C197.788 112.052 197.795 114.019 199.013 115.229Z" fill="white"/>
<path d="M192.764 129.629C190.962 131.443 188.031 131.453 186.217 129.651C184.403 127.849 184.393 124.918 186.195 123.104C187.997 121.29 190.928 121.28 192.742 123.082C194.556 124.884 194.566 127.815 192.764 129.629Z" fill="white"/>
<path d="M174.488 152.19C177.488 155.17 182.335 155.154 185.314 152.154C188.294 149.154 188.278 144.308 185.278 141.327C182.279 138.348 177.432 138.364 174.452 141.364C171.472 144.364 171.488 149.21 174.488 152.19Z" fill="white"/>
<path d="M167.924 180.831C171.501 184.384 177.28 184.364 180.833 180.788C184.386 177.211 184.367 171.431 180.79 167.879C177.214 164.326 171.434 164.345 167.881 167.922C164.328 171.498 164.347 177.278 167.924 180.831Z" fill="white"/>
<path d="M356.167 356.212C359.72 352.636 365.499 352.616 369.076 356.169C372.653 359.722 372.672 365.502 369.119 369.078C365.566 372.655 359.786 372.674 356.21 369.121C352.633 365.569 352.614 359.789 356.167 356.212Z" fill="white"/>
<path d="M362.512 384.81C359.512 381.83 354.665 381.846 351.686 384.846C348.706 387.846 348.722 392.692 351.722 395.673C354.721 398.652 359.568 398.636 362.548 395.636C365.528 392.636 365.512 387.79 362.512 384.81Z" fill="white"/>
<path d="M344.236 407.371C346.038 405.557 348.969 405.547 350.783 407.349C352.597 409.151 352.607 412.082 350.805 413.896C349.003 415.71 346.072 415.72 344.258 413.918C342.444 412.116 342.434 409.185 344.236 407.371Z" fill="white"/>
<path d="M337.987 421.771C336.77 420.562 334.802 420.568 333.593 421.786C332.383 423.003 332.39 424.97 333.608 426.18C334.825 427.389 336.793 427.383 338.002 426.165C339.212 424.948 339.205 422.981 337.987 421.771Z" fill="white"/>
<path d="M356.14 180.762C352.56 177.212 352.536 171.432 356.086 167.852C359.636 164.273 365.416 164.249 368.996 167.799C372.575 171.348 372.599 177.129 369.049 180.708C365.499 184.287 359.72 184.312 356.14 180.762Z" fill="white"/>
<path d="M384.733 174.392C381.756 177.394 381.776 182.242 384.778 185.218C387.78 188.196 392.627 188.176 395.604 185.174C398.581 182.172 398.561 177.324 395.559 174.348C392.557 171.37 387.71 171.39 384.733 174.392Z" fill="white"/>
<path d="M407.309 192.649C405.494 190.849 405.482 187.918 407.282 186.102C409.082 184.287 412.014 184.274 413.829 186.075C415.645 187.875 415.657 190.806 413.857 192.622C412.056 194.438 409.125 194.45 407.309 192.649Z" fill="white"/>
<path d="M421.715 198.886C420.507 200.104 420.515 202.071 421.734 203.28C422.952 204.488 424.92 204.481 426.128 203.262C427.336 202.043 427.328 200.075 426.11 198.867C424.891 197.659 422.924 197.667 421.715 198.886Z" fill="white"/>
<path d="M180.86 356.238C184.44 359.788 184.464 365.568 180.914 369.148C177.364 372.727 171.584 372.751 168.004 369.201C164.425 365.652 164.401 359.871 167.951 356.292C171.501 352.713 177.28 352.688 180.86 356.238Z" fill="white"/>
<path d="M152.267 362.608C155.244 359.606 155.224 354.758 152.222 351.782C149.22 348.804 144.373 348.824 141.396 351.826C138.419 354.828 138.439 359.676 141.441 362.652C144.443 365.63 149.29 365.61 152.267 362.608Z" fill="white"/>
<path d="M129.691 344.351C131.506 346.151 131.518 349.082 129.718 350.898C127.918 352.713 124.986 352.726 123.171 350.925C121.355 349.125 121.343 346.194 123.143 344.378C124.944 342.562 127.875 342.55 129.691 344.351Z" fill="white"/>
<path d="M115.285 338.114C116.493 336.896 116.485 334.929 115.266 333.72C114.048 332.512 112.08 332.519 110.872 333.738C109.664 334.957 109.672 336.925 110.89 338.133C112.109 339.341 114.076 339.333 115.285 338.114Z" fill="white"/>
<path d="M220.967 153.961C216.318 155.909 210.968 153.72 209.019 149.071C207.07 144.421 209.259 139.072 213.909 137.123C218.558 135.174 223.907 137.363 225.856 142.013C227.806 146.662 225.616 152.011 220.967 153.961Z" fill="white"/>
<path d="M226.022 125.107C227.657 129.006 232.143 130.841 236.042 129.207C239.941 127.573 241.777 123.086 240.142 119.188C238.508 115.289 234.022 113.453 230.123 115.087C226.223 116.721 224.388 121.208 226.022 125.107Z" fill="white"/>
<path d="M316.033 383.039C320.682 381.091 326.032 383.28 327.981 387.929C329.93 392.579 327.741 397.928 323.091 399.877C318.442 401.826 313.093 399.637 311.144 394.987C309.194 390.338 311.384 384.989 316.033 383.039Z" fill="white"/>
<path d="M310.978 411.893C309.343 407.994 304.857 406.159 300.958 407.793C297.059 409.427 295.223 413.914 296.858 417.812C298.492 421.711 302.978 423.547 306.877 421.913C310.777 420.279 312.612 415.792 310.978 411.893Z" fill="white"/>
<path d="M285.472 425.767C287.83 424.778 290.543 425.888 291.531 428.246C292.52 430.605 291.41 433.317 289.052 434.306C286.694 435.294 283.981 434.184 282.992 431.826C282.004 429.468 283.114 426.756 285.472 425.767Z" fill="white"/>
<path d="M274.198 436.69C273.535 435.108 271.714 434.363 270.131 435.026C268.549 435.689 267.803 437.51 268.467 439.093C269.13 440.675 270.951 441.421 272.534 440.758C274.117 440.094 274.862 438.273 274.198 436.69Z" fill="white"/>
<path d="M383.001 220.873C381.048 216.225 383.233 210.874 387.881 208.921C392.529 206.968 397.88 209.152 399.833 213.8C401.785 218.448 399.601 223.799 394.953 225.752C390.305 227.705 384.954 225.52 383.001 220.873Z" fill="white"/>
<path d="M411.86 225.903C407.962 227.541 406.13 232.028 407.768 235.926C409.405 239.824 413.893 241.656 417.791 240.019C421.689 238.38 423.521 233.893 421.883 229.995C420.245 226.097 415.758 224.265 411.86 225.903Z" fill="white"/>
<path d="M425.755 251.397C424.764 249.039 425.872 246.326 428.229 245.335C430.586 244.345 433.3 245.453 434.291 247.81C435.281 250.167 434.173 252.881 431.816 253.871C429.459 254.862 426.745 253.754 425.755 251.397Z" fill="white"/>
<path d="M436.688 262.661C435.106 263.326 434.362 265.147 435.027 266.73C435.692 268.311 437.513 269.055 439.096 268.391C440.678 267.725 441.421 265.905 440.757 264.322C440.092 262.74 438.27 261.996 436.688 262.661Z" fill="white"/>
<path d="M153.999 316.127C155.952 320.775 153.767 326.126 149.119 328.079C144.471 330.032 139.12 327.848 137.167 323.2C135.215 318.552 137.399 313.201 142.047 311.248C146.695 309.295 152.046 311.48 153.999 316.127Z" fill="white"/>
<path d="M125.14 311.097C129.038 309.459 130.87 304.972 129.232 301.074C127.595 297.176 123.107 295.344 119.209 296.981C115.311 298.62 113.479 303.107 115.117 307.005C116.755 310.903 121.242 312.735 125.14 311.097Z" fill="white"/>
<path d="M111.245 285.603C112.236 287.961 111.128 290.674 108.771 291.665C106.414 292.655 103.7 291.547 102.709 289.19C101.719 286.833 102.827 284.119 105.184 283.129C107.541 282.138 110.255 283.246 111.245 285.603Z" fill="white"/>
<path d="M100.312 274.339C101.894 273.674 102.638 271.853 101.973 270.27C101.308 268.689 99.4868 267.945 97.9044 268.609C96.3223 269.275 95.5786 271.095 96.2434 272.678C96.9083 274.26 98.7299 275.004 100.312 274.339Z" fill="white"/>
<path d="M268.232 144.489C263.191 144.518 259.081 140.455 259.051 135.414C259.022 130.373 263.086 126.262 268.127 126.234C273.169 126.205 277.279 130.268 277.308 135.309C277.337 140.35 273.274 144.461 268.232 144.489Z" fill="white"/>
<path d="M283.907 119.743C283.932 123.971 287.379 127.379 291.607 127.354C295.835 127.33 299.242 123.883 299.218 119.655C299.194 115.427 295.747 112.019 291.519 112.044C287.291 112.068 283.883 115.515 283.907 119.743Z" fill="white"/>
<path d="M312.776 116.643C310.219 116.658 308.135 114.597 308.12 112.04C308.105 109.483 310.166 107.399 312.723 107.384C315.28 107.369 317.364 109.431 317.379 111.987C317.394 114.544 315.333 116.629 312.776 116.643Z" fill="white"/>
<path d="M327.363 110.843C327.373 112.559 328.773 113.942 330.489 113.933C332.205 113.923 333.588 112.523 333.578 110.807C333.568 109.091 332.169 107.708 330.453 107.718C328.737 107.728 327.353 109.127 327.363 110.843Z" fill="white"/>
<path d="M268.768 392.511C273.809 392.482 277.919 396.545 277.949 401.586C277.978 406.627 273.914 410.738 268.873 410.766C263.831 410.795 259.721 406.732 259.692 401.691C259.663 396.65 263.726 392.539 268.768 392.511Z" fill="white"/>
<path d="M253.093 417.257C253.068 413.029 249.621 409.621 245.393 409.646C241.165 409.67 237.758 413.117 237.782 417.345C237.806 421.573 241.253 424.981 245.481 424.956C249.709 424.932 253.117 421.485 253.093 417.257Z" fill="white"/>
<path d="M224.224 420.357C226.781 420.342 228.865 422.403 228.88 424.96C228.895 427.517 226.834 429.601 224.277 429.616C221.72 429.631 219.636 427.569 219.621 425.013C219.606 422.456 221.667 420.371 224.224 420.357Z" fill="white"/>
<path d="M209.637 426.157C209.627 424.441 208.227 423.058 206.511 423.067C204.795 423.077 203.412 424.477 203.422 426.193C203.432 427.909 204.831 429.292 206.547 429.282C208.263 429.272 209.647 427.873 209.637 426.157Z" fill="white"/>
<path d="M392.512 268.128C392.478 263.087 396.538 258.974 401.579 258.941C406.621 258.907 410.735 262.967 410.768 268.008C410.801 273.049 406.741 277.163 401.7 277.197C396.659 277.23 392.545 273.17 392.512 268.128Z" fill="white"/>
<path d="M417.272 283.783C413.044 283.811 409.639 287.26 409.667 291.488C409.695 295.716 413.145 299.121 417.373 299.093C421.6 299.065 425.005 295.615 424.977 291.387C424.949 287.16 421.499 283.755 417.272 283.783Z" fill="white"/>
<path d="M420.396 312.648C420.379 310.092 422.438 308.005 424.995 307.988C427.552 307.972 429.638 310.031 429.655 312.588C429.672 315.144 427.613 317.231 425.056 317.247C422.499 317.264 420.413 315.205 420.396 312.648Z" fill="white"/>
<path d="M426.208 327.231C424.492 327.242 423.11 328.642 423.121 330.358C423.133 332.074 424.533 333.457 426.249 333.445C427.965 333.434 429.347 332.033 429.336 330.317C429.325 328.601 427.924 327.219 426.208 327.231Z" fill="white"/>
<path d="M144.489 268.872C144.522 273.913 140.462 278.026 135.42 278.059C130.379 278.093 126.265 274.033 126.232 268.992C126.199 263.951 130.259 259.837 135.3 259.803C140.341 259.77 144.455 263.83 144.489 268.872Z" fill="white"/>
<path d="M119.728 253.217C123.956 253.189 127.361 249.74 127.333 245.512C127.305 241.284 123.855 237.879 119.627 237.907C115.4 237.935 111.995 241.385 112.023 245.613C112.051 249.84 115.501 253.245 119.728 253.217Z" fill="white"/>
<path d="M116.604 224.352C116.621 226.908 114.562 228.995 112.005 229.012C109.448 229.028 107.362 226.969 107.345 224.412C107.328 221.856 109.387 219.769 111.944 219.753C114.501 219.736 116.587 221.795 116.604 224.352Z" fill="white"/>
<path d="M110.792 209.769C112.508 209.758 113.89 208.358 113.879 206.642C113.867 204.926 112.467 203.543 110.751 203.555C109.035 203.566 107.653 204.967 107.664 206.683C107.675 208.399 109.076 209.781 110.792 209.769Z" fill="white"/>
<path d="M315.821 153.872C311.154 151.966 308.917 146.637 310.824 141.969C312.73 137.303 318.06 135.066 322.727 136.972C327.393 138.879 329.631 144.208 327.724 148.875C325.817 153.542 320.488 155.779 315.821 153.872Z" fill="white"/>
<path d="M339.789 137.032C338.19 140.945 340.066 145.414 343.98 147.013C347.894 148.613 352.363 146.736 353.963 142.822C355.562 138.909 353.685 134.44 349.772 132.841C345.858 131.241 341.389 133.118 339.789 137.032Z" fill="white"/>
<path d="M367.639 145.241C365.272 144.274 364.138 141.571 365.105 139.205C366.072 136.838 368.775 135.703 371.141 136.671C373.508 137.637 374.643 140.341 373.676 142.707C372.709 145.074 370.006 146.209 367.639 145.241Z" fill="white"/>
<path d="M383.335 145.481C382.686 147.069 383.448 148.883 385.036 149.532C386.625 150.181 388.439 149.42 389.088 147.832C389.737 146.242 388.976 144.428 387.387 143.78C385.798 143.13 383.984 143.892 383.335 145.481Z" fill="white"/>
<path d="M221.179 383.128C225.846 385.034 228.083 390.363 226.176 395.031C224.27 399.697 218.94 401.934 214.273 400.028C209.607 398.121 207.369 392.792 209.276 388.125C211.183 383.458 216.512 381.221 221.179 383.128Z" fill="white"/>
<path d="M197.211 399.968C198.81 396.055 196.934 391.586 193.02 389.987C189.106 388.387 184.637 390.264 183.037 394.178C181.438 398.091 183.315 402.56 187.228 404.159C191.142 405.759 195.611 403.882 197.211 399.968Z" fill="white"/>
<path d="M169.361 391.759C171.728 392.726 172.862 395.429 171.895 397.795C170.928 400.162 168.225 401.297 165.859 400.329C163.492 399.363 162.357 396.659 163.324 394.293C164.291 391.926 166.994 390.791 169.361 391.759Z" fill="white"/>
<path d="M153.665 391.519C154.314 389.931 153.552 388.117 151.964 387.468C150.375 386.819 148.561 387.58 147.912 389.168C147.263 390.758 148.024 392.572 149.613 393.22C151.202 393.87 153.016 393.108 153.665 391.519Z" fill="white"/>
<path d="M383.169 315.724C385.071 311.056 390.399 308.814 395.067 310.717C399.736 312.62 401.978 317.947 400.075 322.616C398.172 327.284 392.844 329.526 388.176 327.623C383.507 325.72 381.265 320.393 383.169 315.724Z" fill="white"/>
<path d="M400.03 339.678C396.115 338.082 391.647 339.962 390.051 343.877C388.455 347.793 390.335 352.26 394.251 353.856C398.166 355.452 402.633 353.572 404.229 349.656C405.825 345.742 403.945 341.274 400.03 339.678Z" fill="white"/>
<path d="M391.843 367.535C392.808 365.166 395.51 364.03 397.878 364.995C400.245 365.96 401.382 368.661 400.417 371.03C399.452 373.397 396.75 374.534 394.383 373.569C392.015 372.604 390.878 369.902 391.843 367.535Z" fill="white"/>
<path d="M391.617 383.23C390.028 382.582 388.215 383.345 387.567 384.935C386.919 386.524 387.682 388.337 389.271 388.985C390.861 389.633 392.674 388.87 393.322 387.281C393.97 385.692 393.207 383.878 391.617 383.23Z" fill="white"/>
<path d="M153.831 221.276C151.929 225.944 146.601 228.186 141.933 226.283C137.264 224.38 135.022 219.053 136.925 214.384C138.828 209.716 144.156 207.474 148.824 209.377C153.493 211.28 155.735 216.607 153.831 221.276Z" fill="white"/>
<path d="M136.97 197.322C140.885 198.918 145.353 197.038 146.949 193.123C148.545 189.207 146.665 184.74 142.749 183.144C138.834 181.548 134.367 183.428 132.771 187.344C131.175 191.258 133.055 195.726 136.97 197.322Z" fill="white"/>
<path d="M145.157 169.465C144.192 171.834 141.49 172.97 139.122 172.005C136.755 171.04 135.618 168.339 136.583 165.97C137.548 163.603 140.25 162.466 142.617 163.431C144.985 164.396 146.122 167.098 145.157 169.465Z" fill="white"/>
<path d="M145.383 153.77C146.972 154.418 148.785 153.655 149.433 152.065C150.081 150.476 149.318 148.663 147.729 148.015C146.139 147.367 144.326 148.13 143.678 149.719C143.03 151.308 143.794 153.122 145.383 153.77Z" fill="white"/>
<path d="M262.802 100.31C263.465 101.892 265.286 102.637 266.869 101.974C268.451 101.311 269.197 99.49 268.533 97.9069C267.87 96.3245 266.049 95.5789 264.466 96.2424C262.883 96.9059 262.138 98.7269 262.802 100.31Z" stroke="white" stroke-width="8" mask="url(#path-2-outside-1_4585_17491)"/>
<path d="M251.528 111.233C249.17 112.222 246.457 111.112 245.469 108.754C244.48 106.395 245.59 103.683 247.948 102.694C250.306 101.706 253.019 102.816 254.008 105.174C254.996 107.532 253.886 110.244 251.528 111.233Z" stroke="white" stroke-width="8" mask="url(#path-2-outside-1_4585_17491)"/>
<path d="M199.013 115.229C200.23 116.438 202.198 116.432 203.407 115.214C204.617 113.997 204.61 112.03 203.392 110.82C202.175 109.611 200.207 109.617 198.998 110.835C197.788 112.052 197.795 114.019 199.013 115.229Z" stroke="white" stroke-width="8" mask="url(#path-2-outside-1_4585_17491)"/>
<path d="M192.764 129.629C190.962 131.443 188.031 131.453 186.217 129.651C184.403 127.849 184.393 124.918 186.195 123.104C187.997 121.29 190.928 121.28 192.742 123.082C194.556 124.884 194.566 127.815 192.764 129.629Z" stroke="white" stroke-width="8" mask="url(#path-2-outside-1_4585_17491)"/>
<path d="M174.488 152.19C177.488 155.17 182.335 155.154 185.314 152.154C188.294 149.154 188.278 144.308 185.278 141.327C182.279 138.348 177.432 138.364 174.452 141.364C171.472 144.364 171.488 149.21 174.488 152.19Z" stroke="white" stroke-width="8" mask="url(#path-2-outside-1_4585_17491)"/>
<path d="M167.924 180.831C171.501 184.384 177.28 184.364 180.833 180.788C184.386 177.211 184.367 171.431 180.79 167.879C177.214 164.326 171.434 164.345 167.881 167.922C164.328 171.498 164.347 177.278 167.924 180.831Z" stroke="white" stroke-width="8" mask="url(#path-2-outside-1_4585_17491)"/>
<path d="M356.167 356.212C359.72 352.636 365.499 352.616 369.076 356.169C372.653 359.722 372.672 365.502 369.119 369.078C365.566 372.655 359.786 372.674 356.21 369.121C352.633 365.569 352.614 359.789 356.167 356.212Z" stroke="white" stroke-width="8" mask="url(#path-2-outside-1_4585_17491)"/>
<path d="M362.512 384.81C359.512 381.83 354.665 381.846 351.686 384.846C348.706 387.846 348.722 392.692 351.722 395.673C354.721 398.652 359.568 398.636 362.548 395.636C365.528 392.636 365.512 387.79 362.512 384.81Z" stroke="white" stroke-width="8" mask="url(#path-2-outside-1_4585_17491)"/>
<path d="M344.236 407.371C346.038 405.557 348.969 405.547 350.783 407.349C352.597 409.151 352.607 412.082 350.805 413.896C349.003 415.71 346.072 415.72 344.258 413.918C342.444 412.116 342.434 409.185 344.236 407.371Z" stroke="white" stroke-width="8" mask="url(#path-2-outside-1_4585_17491)"/>
<path d="M337.987 421.771C336.77 420.562 334.802 420.568 333.593 421.786C332.383 423.003 332.39 424.97 333.608 426.18C334.825 427.389 336.793 427.383 338.002 426.165C339.212 424.948 339.205 422.981 337.987 421.771Z" stroke="white" stroke-width="8" mask="url(#path-2-outside-1_4585_17491)"/>
<path d="M356.14 180.762C352.56 177.212 352.536 171.432 356.086 167.852C359.636 164.273 365.416 164.249 368.996 167.799C372.575 171.348 372.599 177.129 369.049 180.708C365.499 184.287 359.72 184.312 356.14 180.762Z" stroke="white" stroke-width="8" mask="url(#path-2-outside-1_4585_17491)"/>
<path d="M384.733 174.392C381.756 177.394 381.776 182.242 384.778 185.218C387.78 188.196 392.627 188.176 395.604 185.174C398.581 182.172 398.561 177.324 395.559 174.348C392.557 171.37 387.71 171.39 384.733 174.392Z" stroke="white" stroke-width="8" mask="url(#path-2-outside-1_4585_17491)"/>
<path d="M407.309 192.649C405.494 190.849 405.482 187.918 407.282 186.102C409.082 184.287 412.014 184.274 413.829 186.075C415.645 187.875 415.657 190.806 413.857 192.622C412.056 194.438 409.125 194.45 407.309 192.649Z" stroke="white" stroke-width="8" mask="url(#path-2-outside-1_4585_17491)"/>
<path d="M421.715 198.886C420.507 200.104 420.515 202.071 421.734 203.28C422.952 204.488 424.92 204.481 426.128 203.262C427.336 202.043 427.328 200.075 426.11 198.867C424.891 197.659 422.924 197.667 421.715 198.886Z" stroke="white" stroke-width="8" mask="url(#path-2-outside-1_4585_17491)"/>
<path d="M180.86 356.238C184.44 359.788 184.464 365.568 180.914 369.148C177.364 372.727 171.584 372.751 168.004 369.201C164.425 365.652 164.401 359.871 167.951 356.292C171.501 352.713 177.28 352.688 180.86 356.238Z" stroke="white" stroke-width="8" mask="url(#path-2-outside-1_4585_17491)"/>
<path d="M152.267 362.608C155.244 359.606 155.224 354.758 152.222 351.782C149.22 348.804 144.373 348.824 141.396 351.826C138.419 354.828 138.439 359.676 141.441 362.652C144.443 365.63 149.29 365.61 152.267 362.608Z" stroke="white" stroke-width="8" mask="url(#path-2-outside-1_4585_17491)"/>
<path d="M129.691 344.351C131.506 346.151 131.518 349.082 129.718 350.898C127.918 352.713 124.986 352.726 123.171 350.925C121.355 349.125 121.343 346.194 123.143 344.378C124.944 342.562 127.875 342.55 129.691 344.351Z" stroke="white" stroke-width="8" mask="url(#path-2-outside-1_4585_17491)"/>
<path d="M115.285 338.114C116.493 336.896 116.485 334.929 115.266 333.72C114.048 332.512 112.08 332.519 110.872 333.738C109.664 334.957 109.672 336.925 110.89 338.133C112.109 339.341 114.076 339.333 115.285 338.114Z" stroke="white" stroke-width="8" mask="url(#path-2-outside-1_4585_17491)"/>
<path d="M220.967 153.961C216.318 155.909 210.968 153.72 209.019 149.071C207.07 144.421 209.259 139.072 213.909 137.123C218.558 135.174 223.907 137.363 225.856 142.013C227.806 146.662 225.616 152.011 220.967 153.961Z" stroke="white" stroke-width="8" mask="url(#path-2-outside-1_4585_17491)"/>
<path d="M226.022 125.107C227.657 129.006 232.143 130.841 236.042 129.207C239.941 127.573 241.777 123.086 240.142 119.188C238.508 115.289 234.022 113.453 230.123 115.087C226.223 116.721 224.388 121.208 226.022 125.107Z" stroke="white" stroke-width="8" mask="url(#path-2-outside-1_4585_17491)"/>
<path d="M316.033 383.039C320.682 381.091 326.032 383.28 327.981 387.929C329.93 392.579 327.741 397.928 323.091 399.877C318.442 401.826 313.093 399.637 311.144 394.987C309.194 390.338 311.384 384.989 316.033 383.039Z" stroke="white" stroke-width="8" mask="url(#path-2-outside-1_4585_17491)"/>
<path d="M310.978 411.893C309.343 407.994 304.857 406.159 300.958 407.793C297.059 409.427 295.223 413.914 296.858 417.812C298.492 421.711 302.978 423.547 306.877 421.913C310.777 420.279 312.612 415.792 310.978 411.893Z" stroke="white" stroke-width="8" mask="url(#path-2-outside-1_4585_17491)"/>
<path d="M285.472 425.767C287.83 424.778 290.543 425.888 291.531 428.246C292.52 430.605 291.41 433.317 289.052 434.306C286.694 435.294 283.981 434.184 282.992 431.826C282.004 429.468 283.114 426.756 285.472 425.767Z" stroke="white" stroke-width="8" mask="url(#path-2-outside-1_4585_17491)"/>
<path d="M274.198 436.69C273.535 435.108 271.714 434.363 270.131 435.026C268.549 435.689 267.803 437.51 268.467 439.093C269.13 440.675 270.951 441.421 272.534 440.758C274.117 440.094 274.862 438.273 274.198 436.69Z" stroke="white" stroke-width="8" mask="url(#path-2-outside-1_4585_17491)"/>
<path d="M383.001 220.873C381.048 216.225 383.233 210.874 387.881 208.921C392.529 206.968 397.88 209.152 399.833 213.8C401.785 218.448 399.601 223.799 394.953 225.752C390.305 227.705 384.954 225.52 383.001 220.873Z" stroke="white" stroke-width="8" mask="url(#path-2-outside-1_4585_17491)"/>
<path d="M411.86 225.903C407.962 227.541 406.13 232.028 407.768 235.926C409.405 239.824 413.893 241.656 417.791 240.019C421.689 238.38 423.521 233.893 421.883 229.995C420.245 226.097 415.758 224.265 411.86 225.903Z" stroke="white" stroke-width="8" mask="url(#path-2-outside-1_4585_17491)"/>
<path d="M425.755 251.397C424.764 249.039 425.872 246.326 428.229 245.335C430.586 244.345 433.3 245.453 434.291 247.81C435.281 250.167 434.173 252.881 431.816 253.871C429.459 254.862 426.745 253.754 425.755 251.397Z" stroke="white" stroke-width="8" mask="url(#path-2-outside-1_4585_17491)"/>
<path d="M436.688 262.661C435.106 263.326 434.362 265.147 435.027 266.73C435.692 268.311 437.513 269.055 439.096 268.391C440.678 267.725 441.421 265.905 440.757 264.322C440.092 262.74 438.27 261.996 436.688 262.661Z" stroke="white" stroke-width="8" mask="url(#path-2-outside-1_4585_17491)"/>
<path d="M153.999 316.127C155.952 320.775 153.767 326.126 149.119 328.079C144.471 330.032 139.12 327.848 137.167 323.2C135.215 318.552 137.399 313.201 142.047 311.248C146.695 309.295 152.046 311.48 153.999 316.127Z" stroke="white" stroke-width="8" mask="url(#path-2-outside-1_4585_17491)"/>
<path d="M125.14 311.097C129.038 309.459 130.87 304.972 129.232 301.074C127.595 297.176 123.107 295.344 119.209 296.981C115.311 298.62 113.479 303.107 115.117 307.005C116.755 310.903 121.242 312.735 125.14 311.097Z" stroke="white" stroke-width="8" mask="url(#path-2-outside-1_4585_17491)"/>
<path d="M111.245 285.603C112.236 287.961 111.128 290.674 108.771 291.665C106.414 292.655 103.7 291.547 102.709 289.19C101.719 286.833 102.827 284.119 105.184 283.129C107.541 282.138 110.255 283.246 111.245 285.603Z" stroke="white" stroke-width="8" mask="url(#path-2-outside-1_4585_17491)"/>
<path d="M100.312 274.339C101.894 273.674 102.638 271.853 101.973 270.27C101.308 268.689 99.4868 267.945 97.9044 268.609C96.3223 269.275 95.5786 271.095 96.2434 272.678C96.9083 274.26 98.7299 275.004 100.312 274.339Z" stroke="white" stroke-width="8" mask="url(#path-2-outside-1_4585_17491)"/>
<path d="M268.232 144.489C263.191 144.518 259.081 140.455 259.051 135.414C259.022 130.373 263.086 126.262 268.127 126.234C273.169 126.205 277.279 130.268 277.308 135.309C277.337 140.35 273.274 144.461 268.232 144.489Z" stroke="white" stroke-width="8" mask="url(#path-2-outside-1_4585_17491)"/>
<path d="M283.907 119.743C283.932 123.971 287.379 127.379 291.607 127.354C295.835 127.33 299.242 123.883 299.218 119.655C299.194 115.427 295.747 112.019 291.519 112.044C287.291 112.068 283.883 115.515 283.907 119.743Z" stroke="white" stroke-width="8" mask="url(#path-2-outside-1_4585_17491)"/>
<path d="M312.776 116.643C310.219 116.658 308.135 114.597 308.12 112.04C308.105 109.483 310.166 107.399 312.723 107.384C315.28 107.369 317.364 109.431 317.379 111.987C317.394 114.544 315.333 116.629 312.776 116.643Z" stroke="white" stroke-width="8" mask="url(#path-2-outside-1_4585_17491)"/>
<path d="M327.363 110.843C327.373 112.559 328.773 113.942 330.489 113.933C332.205 113.923 333.588 112.523 333.578 110.807C333.568 109.091 332.169 107.708 330.453 107.718C328.737 107.728 327.353 109.127 327.363 110.843Z" stroke="white" stroke-width="8" mask="url(#path-2-outside-1_4585_17491)"/>
<path d="M268.768 392.511C273.809 392.482 277.919 396.545 277.949 401.586C277.978 406.627 273.914 410.738 268.873 410.766C263.831 410.795 259.721 406.732 259.692 401.691C259.663 396.65 263.726 392.539 268.768 392.511Z" stroke="white" stroke-width="8" mask="url(#path-2-outside-1_4585_17491)"/>
<path d="M253.093 417.257C253.068 413.029 249.621 409.621 245.393 409.646C241.165 409.67 237.758 413.117 237.782 417.345C237.806 421.573 241.253 424.981 245.481 424.956C249.709 424.932 253.117 421.485 253.093 417.257Z" stroke="white" stroke-width="8" mask="url(#path-2-outside-1_4585_17491)"/>
<path d="M224.224 420.357C226.781 420.342 228.865 422.403 228.88 424.96C228.895 427.517 226.834 429.601 224.277 429.616C221.72 429.631 219.636 427.569 219.621 425.013C219.606 422.456 221.667 420.371 224.224 420.357Z" stroke="white" stroke-width="8" mask="url(#path-2-outside-1_4585_17491)"/>
<path d="M209.637 426.157C209.627 424.441 208.227 423.058 206.511 423.067C204.795 423.077 203.412 424.477 203.422 426.193C203.432 427.909 204.831 429.292 206.547 429.282C208.263 429.272 209.647 427.873 209.637 426.157Z" stroke="white" stroke-width="8" mask="url(#path-2-outside-1_4585_17491)"/>
<path d="M392.512 268.128C392.478 263.087 396.538 258.974 401.579 258.941C406.621 258.907 410.735 262.967 410.768 268.008C410.801 273.049 406.741 277.163 401.7 277.197C396.659 277.23 392.545 273.17 392.512 268.128Z" stroke="white" stroke-width="8" mask="url(#path-2-outside-1_4585_17491)"/>
<path d="M417.272 283.783C413.044 283.811 409.639 287.26 409.667 291.488C409.695 295.716 413.145 299.121 417.373 299.093C421.6 299.065 425.005 295.615 424.977 291.387C424.949 287.16 421.499 283.755 417.272 283.783Z" stroke="white" stroke-width="8" mask="url(#path-2-outside-1_4585_17491)"/>
<path d="M420.396 312.648C420.379 310.092 422.438 308.005 424.995 307.988C427.552 307.972 429.638 310.031 429.655 312.588C429.672 315.144 427.613 317.231 425.056 317.247C422.499 317.264 420.413 315.205 420.396 312.648Z" stroke="white" stroke-width="8" mask="url(#path-2-outside-1_4585_17491)"/>
<path d="M426.208 327.231C424.492 327.242 423.11 328.642 423.121 330.358C423.133 332.074 424.533 333.457 426.249 333.445C427.965 333.434 429.347 332.033 429.336 330.317C429.325 328.601 427.924 327.219 426.208 327.231Z" stroke="white" stroke-width="8" mask="url(#path-2-outside-1_4585_17491)"/>
<path d="M144.489 268.872C144.522 273.913 140.462 278.026 135.42 278.059C130.379 278.093 126.265 274.033 126.232 268.992C126.199 263.951 130.259 259.837 135.3 259.803C140.341 259.77 144.455 263.83 144.489 268.872Z" stroke="white" stroke-width="8" mask="url(#path-2-outside-1_4585_17491)"/>
<path d="M119.728 253.217C123.956 253.189 127.361 249.74 127.333 245.512C127.305 241.284 123.855 237.879 119.627 237.907C115.4 237.935 111.995 241.385 112.023 245.613C112.051 249.84 115.501 253.245 119.728 253.217Z" stroke="white" stroke-width="8" mask="url(#path-2-outside-1_4585_17491)"/>
<path d="M116.604 224.352C116.621 226.908 114.562 228.995 112.005 229.012C109.448 229.028 107.362 226.969 107.345 224.412C107.328 221.856 109.387 219.769 111.944 219.753C114.501 219.736 116.587 221.795 116.604 224.352Z" stroke="white" stroke-width="8" mask="url(#path-2-outside-1_4585_17491)"/>
<path d="M110.792 209.769C112.508 209.758 113.89 208.358 113.879 206.642C113.867 204.926 112.467 203.543 110.751 203.555C109.035 203.566 107.653 204.967 107.664 206.683C107.675 208.399 109.076 209.781 110.792 209.769Z" stroke="white" stroke-width="8" mask="url(#path-2-outside-1_4585_17491)"/>
<path d="M315.821 153.872C311.154 151.966 308.917 146.637 310.824 141.969C312.73 137.303 318.06 135.066 322.727 136.972C327.393 138.879 329.631 144.208 327.724 148.875C325.817 153.542 320.488 155.779 315.821 153.872Z" stroke="white" stroke-width="8" mask="url(#path-2-outside-1_4585_17491)"/>
<path d="M339.789 137.032C338.19 140.945 340.066 145.414 343.98 147.013C347.894 148.613 352.363 146.736 353.963 142.822C355.562 138.909 353.685 134.44 349.772 132.841C345.858 131.241 341.389 133.118 339.789 137.032Z" stroke="white" stroke-width="8" mask="url(#path-2-outside-1_4585_17491)"/>
<path d="M367.639 145.241C365.272 144.274 364.138 141.571 365.105 139.205C366.072 136.838 368.775 135.703 371.141 136.671C373.508 137.637 374.643 140.341 373.676 142.707C372.709 145.074 370.006 146.209 367.639 145.241Z" stroke="white" stroke-width="8" mask="url(#path-2-outside-1_4585_17491)"/>
<path d="M383.335 145.481C382.686 147.069 383.448 148.883 385.036 149.532C386.625 150.181 388.439 149.42 389.088 147.832C389.737 146.242 388.976 144.428 387.387 143.78C385.798 143.13 383.984 143.892 383.335 145.481Z" stroke="white" stroke-width="8" mask="url(#path-2-outside-1_4585_17491)"/>
<path d="M221.179 383.128C225.846 385.034 228.083 390.363 226.176 395.031C224.27 399.697 218.94 401.934 214.273 400.028C209.607 398.121 207.369 392.792 209.276 388.125C211.183 383.458 216.512 381.221 221.179 383.128Z" stroke="white" stroke-width="8" mask="url(#path-2-outside-1_4585_17491)"/>
<path d="M197.211 399.968C198.81 396.055 196.934 391.586 193.02 389.987C189.106 388.387 184.637 390.264 183.037 394.178C181.438 398.091 183.315 402.56 187.228 404.159C191.142 405.759 195.611 403.882 197.211 399.968Z" stroke="white" stroke-width="8" mask="url(#path-2-outside-1_4585_17491)"/>
<path d="M169.361 391.759C171.728 392.726 172.862 395.429 171.895 397.795C170.928 400.162 168.225 401.297 165.859 400.329C163.492 399.363 162.357 396.659 163.324 394.293C164.291 391.926 166.994 390.791 169.361 391.759Z" stroke="white" stroke-width="8" mask="url(#path-2-outside-1_4585_17491)"/>
<path d="M153.665 391.519C154.314 389.931 153.552 388.117 151.964 387.468C150.375 386.819 148.561 387.58 147.912 389.168C147.263 390.758 148.024 392.572 149.613 393.22C151.202 393.87 153.016 393.108 153.665 391.519Z" stroke="white" stroke-width="8" mask="url(#path-2-outside-1_4585_17491)"/>
<path d="M383.169 315.724C385.071 311.056 390.399 308.814 395.067 310.717C399.736 312.62 401.978 317.947 400.075 322.616C398.172 327.284 392.844 329.526 388.176 327.623C383.507 325.72 381.265 320.393 383.169 315.724Z" stroke="white" stroke-width="8" mask="url(#path-2-outside-1_4585_17491)"/>
<path d="M400.03 339.678C396.115 338.082 391.647 339.962 390.051 343.877C388.455 347.793 390.335 352.26 394.251 353.856C398.166 355.452 402.633 353.572 404.229 349.656C405.825 345.742 403.945 341.274 400.03 339.678Z" stroke="white" stroke-width="8" mask="url(#path-2-outside-1_4585_17491)"/>
<path d="M391.843 367.535C392.808 365.166 395.51 364.03 397.878 364.995C400.245 365.96 401.382 368.661 400.417 371.03C399.452 373.397 396.75 374.534 394.383 373.569C392.015 372.604 390.878 369.902 391.843 367.535Z" stroke="white" stroke-width="8" mask="url(#path-2-outside-1_4585_17491)"/>
<path d="M391.617 383.23C390.028 382.582 388.215 383.345 387.567 384.935C386.919 386.524 387.682 388.337 389.271 388.985C390.861 389.633 392.674 388.87 393.322 387.281C393.97 385.692 393.207 383.878 391.617 383.23Z" stroke="white" stroke-width="8" mask="url(#path-2-outside-1_4585_17491)"/>
<path d="M153.831 221.276C151.929 225.944 146.601 228.186 141.933 226.283C137.264 224.38 135.022 219.053 136.925 214.384C138.828 209.716 144.156 207.474 148.824 209.377C153.493 211.28 155.735 216.607 153.831 221.276Z" stroke="white" stroke-width="8" mask="url(#path-2-outside-1_4585_17491)"/>
<path d="M136.97 197.322C140.885 198.918 145.353 197.038 146.949 193.123C148.545 189.207 146.665 184.74 142.749 183.144C138.834 181.548 134.367 183.428 132.771 187.344C131.175 191.258 133.055 195.726 136.97 197.322Z" stroke="white" stroke-width="8" mask="url(#path-2-outside-1_4585_17491)"/>
<path d="M145.157 169.465C144.192 171.834 141.49 172.97 139.122 172.005C136.755 171.04 135.618 168.339 136.583 165.97C137.548 163.603 140.25 162.466 142.617 163.431C144.985 164.396 146.122 167.098 145.157 169.465Z" stroke="white" stroke-width="8" mask="url(#path-2-outside-1_4585_17491)"/>
<path d="M145.383 153.77C146.972 154.418 148.785 153.655 149.433 152.065C150.081 150.476 149.318 148.663 147.729 148.015C146.139 147.367 144.326 148.13 143.678 149.719C143.03 151.308 143.794 153.122 145.383 153.77Z" stroke="white" stroke-width="8" mask="url(#path-2-outside-1_4585_17491)"/>
</svg>
